<?xml version="1.0" encoding="utf-8"?>
<!-- Generator: Adobe Illustrator 25.2.1, SVG Export Plug-In . SVG Version: 6.00 Build 0)  -->
<svg version="1.1" id="Layer_1" xmlns="http://www.w3.org/2000/svg" xmlns:xlink="http://www.w3.org/1999/xlink" x="0px" y="0px"
	 viewBox="0 0 386 59" style="enable-background:new 0 0 386 59;" xml:space="preserve">
<style type="text/css">
	.st0{fill:#161616;}
</style>
<path id="_xD83C__xDFA8_-Elements-_x26_-Style-Guide" class="st0" d="M34.3,28.3c-0.7-2.5-2.1-4.8-3.9-6.7c-3.4-3.3-8-5-12.7-4.8
	c-4.6,0.2-8.4,2.8-9.1,4.1V1.6H0v36.2l0,0c-0.1,3.1,0.3,6.3,1.1,9.3C1.8,49.6,3.2,52,5,53.9c1.5,1.5,3.4,2.7,5.4,3.5
	c2.3,0.9,4.8,1.3,7.2,1.3c2.5,0,5-0.4,7.3-1.3c2-0.8,3.9-2,5.4-3.5c1.9-1.9,3.2-4.2,3.9-6.7c0.8-3.1,1.1-6.2,1.1-9.4
	C35.5,34.5,35.1,31.3,34.3,28.3z M26.3,44.5c-0.3,1.7-1.1,3.2-2.4,4.4c-1.7,1.6-3.9,2.5-6.3,2.4c-2.3,0.1-4.6-0.8-6.2-2.4
	c-1.2-1.2-2-2.8-2.4-4.4c-0.4-2.2-0.6-4.4-0.6-6.7l0,0v-0.6c0-2.1,0.2-4.2,0.6-6.2c0.3-1.7,1.1-3.2,2.4-4.4c1.6-1.6,3.9-2.4,6.2-2.4
	c2.3-0.1,4.6,0.8,6.3,2.4c1.2,1.2,2,2.8,2.4,4.4c0.4,2.2,0.6,4.5,0.6,6.8C26.9,40,26.7,42.2,26.3,44.5L26.3,44.5z M142.8,37.1
	c-0.1,3.2,0.3,6.3,1.1,9.4c0.7,2.5,2.1,4.8,3.9,6.7c1.6,1.5,3.4,2.7,5.4,3.5c4.7,1.8,9.9,1.8,14.5,0c2-0.8,3.8-2,5.4-3.5
	c1.9-1.9,3.2-4.2,3.9-6.7c0.8-3.1,1.1-6.2,1.1-9.3l0,0V0.9h-8.5v19.3c-0.7-1.3-4.5-3.9-9.1-4.1c-4.8-0.2-9.4,1.6-12.7,4.8
	c-1.9,1.9-3.2,4.2-3.9,6.7C143.1,30.7,142.8,33.9,142.8,37.1L142.8,37.1z M151.4,37.1c0-2.3,0.2-4.5,0.6-6.8
	c0.3-1.7,1.1-3.2,2.4-4.4c3.5-3.1,9-3.1,12.5,0c1.2,1.2,2,2.8,2.4,4.4c0.4,2.1,0.6,4.1,0.6,6.2v0.6l0,0c0,2.2-0.2,4.5-0.6,6.7
	c-0.3,1.7-1.1,3.2-2.4,4.5c-1.6,1.6-3.9,2.5-6.2,2.4c-2.4,0.1-4.6-0.8-6.3-2.4c-1.2-1.2-2-2.8-2.4-4.4
	C151.5,41.6,151.3,39.3,151.4,37.1L151.4,37.1z M294.6,28.2c-0.7-2.5-2.1-4.8-3.9-6.7c-1.6-1.5-3.4-2.7-5.5-3.5
	c-2.3-1-4.8-1.4-7.3-1.3c-4.6,0.2-8.4,2.8-9.1,4.1V1.6h-8.5v36.2l0,0c-0.1,3.1,0.3,6.3,1.1,9.3c1.3,4.6,4.7,8.5,9.3,10.3
	c4.7,1.8,9.9,1.8,14.5,0c2-0.8,3.9-2,5.4-3.5c1.9-1.9,3.2-4.2,3.9-6.7c0.8-3.1,1.1-6.2,1.1-9.4C295.7,34.5,295.4,31.4,294.6,28.2z
	 M286.6,44.4c-0.3,1.7-1.1,3.2-2.4,4.4c-1.7,1.6-3.9,2.5-6.3,2.4c-2.3,0.1-4.6-0.8-6.2-2.4c-1.2-1.2-2-2.8-2.4-4.4
	c-0.4-2.2-0.6-4.4-0.6-6.7l0,0v-0.6c0-2.1,0.2-4.2,0.6-6.2c0.3-1.7,1.1-3.2,2.4-4.4c1.6-1.6,3.9-2.4,6.2-2.4
	c2.3-0.1,4.6,0.8,6.3,2.4c1.2,1.2,2,2.8,2.4,4.4c0.4,2.2,0.6,4.5,0.6,6.8C287.2,40,287,42.2,286.6,44.4L286.6,44.4z M66.6,39.3
	c0,3.6,1,6.4,2.8,8.5c2,2.1,5,3.3,7.9,3.1c1.9,0.1,3.9-0.3,5.7-1c1.7-0.8,3.3-1.9,4.6-3.2l5.4,4.9c-2,2-4.4,3.7-7,4.9
	c-2.8,1.1-5.8,1.6-8.9,1.5c-2.6,0-5.2-0.4-7.7-1.2c-2.3-0.7-4.3-2-6-3.6c-1.8-1.9-3.2-4.1-4-6.6c-1.1-3.1-1.6-6.5-1.5-9.8
	c0-6.6,1.6-11.8,4.9-15.5c3.3-3.7,8.1-5.7,13.1-5.6c5.6,0,10.1,1.8,13.2,5.4s4.8,8.4,4.8,14.3v3.6H66.6z M85.3,30.5
	c-0.2-0.9-0.5-1.8-0.9-2.6c-0.7-1.5-1.8-2.9-3.2-3.8c-1.5-1-3.3-1.5-5.1-1.4c-1.8,0-3.6,0.5-5.2,1.4c-1.4,0.9-2.6,2.2-3.2,3.8
	c-0.4,0.8-0.6,1.6-0.8,2.4c-0.2,1-0.3,2.1-0.3,3.1h19C85.6,32.5,85.5,31.5,85.3,30.5L85.3,30.5z M127.1,57.3v-25
	c0-3.1-0.8-5.4-2.3-6.9c-1.6-1.6-3.9-2.4-6.1-2.3c-2.3-0.1-4.6,0.8-6.2,2.3c-1.6,1.5-2.4,3.8-2.4,6.8v25h-8.5v-41h8.3v4.2
	c2.9-3.1,6.9-4.7,11.2-4.6c3.8-0.2,7.5,1.2,10.4,3.7c1.5,1.4,2.6,3.1,3.3,5c0.7,2.1,1,4.3,1,6.5v26.2H127.1z M193.4,39.3
	c0,3.6,0.9,6.4,2.8,8.5c2,2.1,5,3.3,8,3.1c1.9,0.1,3.9-0.3,5.7-1c1.7-0.8,3.3-1.9,4.6-3.2l5.4,4.9c-2,2-4.4,3.7-7,4.9
	c-2.8,1.1-5.9,1.6-8.9,1.5c-2.6,0-5.2-0.4-7.6-1.1c-2.3-0.7-4.3-2-6-3.6c-1.8-1.9-3.2-4.1-4.1-6.6c-1-3.2-1.5-6.5-1.4-9.8
	c0-6.6,1.6-11.8,4.9-15.5c3.3-3.7,8.1-5.8,13.1-5.6c5.6,0,10.1,1.8,13.2,5.4s4.8,8.4,4.8,14.3v3.6H193.4z M212.1,30.5
	c-0.2-0.9-0.5-1.8-0.9-2.6c-0.7-1.5-1.8-2.9-3.2-3.8c-1.5-1-3.3-1.4-5.1-1.4c-1.8,0-3.6,0.5-5.1,1.4c-1.4,0.9-2.6,2.2-3.2,3.8
	c-0.4,0.8-0.6,1.6-0.8,2.4c-0.2,1-0.3,2.1-0.3,3.1h19C212.4,32.5,212.3,31.5,212.1,30.5z M251.1,25.9c-0.8-0.8-1.8-1.5-2.9-2.1
	c-1.1-0.5-2.3-0.7-3.5-0.7c-2.3,0-4.5,0.9-6,2.5c-1.7,1.8-2.6,4.2-2.5,6.7v24.9h-8.6v-41h8.4v4.5c1.3-1.6,2.9-2.8,4.8-3.6
	c2.1-0.9,4.3-1.4,6.6-1.4c1.9,0,3.8,0.3,5.6,0.9c1.8,0.7,3.3,1.7,4.6,3L251.1,25.9z M335.9,46.4c-0.7,2.5-2.1,4.9-3.9,6.8
	c-1.6,1.5-3.4,2.7-5.4,3.5c-4.7,1.8-9.8,1.8-14.5,0c-4.6-1.8-8.1-5.7-9.3-10.3c-0.8-3.1-1.1-6.3-1.1-9.5c-0.1-3.2,0.3-6.4,1.1-9.5
	c1.3-4.6,4.8-8.4,9.3-10.3c2.3-0.9,4.8-1.3,7.2-1.3c2.5,0,5,0.4,7.3,1.3c2.1,0.8,3.9,2.1,5.4,3.6c1.9,1.9,3.2,4.2,3.9,6.7
	c0.8,3.1,1.1,6.3,1.1,9.5C337.1,40.1,336.7,43.3,335.9,46.4L335.9,46.4z M327.9,30.1c-0.3-1.7-1.1-3.2-2.4-4.5
	c-3.5-3.2-8.9-3.2-12.5,0c-1.2,1.2-2,2.8-2.3,4.5c-0.4,2.3-0.6,4.5-0.6,6.8c0,2.3,0.2,4.6,0.6,6.8c0.3,1.7,1.1,3.2,2.3,4.4
	c3.5,3.2,9,3.2,12.5,0c1.2-1.2,2.1-2.8,2.4-4.5c0.4-2.3,0.6-4.5,0.6-6.8C328.5,34.6,328.4,32.4,327.9,30.1L327.9,30.1z M365.3,57.3
	l-8.9-13.9l-9,13.9H337l14.7-20.9l-14.1-20H348l8.4,13.3l8.3-13.3h10.4l-14,20l14.6,20.9H365.3z M42.7,0.9h8.7v56.4h-8.7V0.9z
	 M375.4,6.2h10.3v10h-10.3V6.2z"/>
</svg>
