<?xml version="1.0" encoding="UTF-8"?>
<svg width="146px" height="146px" viewBox="0 0 146 146" version="1.1" xmlns="http://www.w3.org/2000/svg" xmlns:xlink="http://www.w3.org/1999/xlink">
    <title>blenderbox-logo-icon</title>
    <g id="🎨-Elements-&amp;-Style-Guide" stroke="none" stroke-width="1" fill="none" fill-rule="evenodd">
        <g id="brand-elements" transform="translate(-188.000000, -866.000000)">
            <g id="Group" transform="translate(120.000000, 765.000000)">
                <g transform="translate(61.000000, 94.000000)" id="1.0-elements/brand/primary-logo-copy-2">
                    <g id="icon" transform="translate(7.111111, 7.111111)" fill="#000000">
                        <circle id="Oval" cx="72.8888889" cy="72.8888889" r="72.8888889"></circle>
                    </g>
                    <path d="M100.696106,77.6454962 C99.8179581,74.5172178 98.1222481,71.6574877 95.7705395,69.3387739 C93.8222804,67.4422893 91.4995903,65.9400879 88.9391675,64.9205795 C86.0728426,63.7238182 82.9608689,63.1715566 79.8396189,63.3057423 C74.0953611,63.6028724 69.3576905,66.8325467 68.4316303,68.395709 L68.4316303,44.4444444 L57.7886479,44.4444444 L57.7886479,89.4919415 L57.7886479,89.4919415 C57.7002295,93.4076123 58.1515336,97.3172846 59.1307643,101.118769 C60.7075005,106.90739 65.016004,111.647731 70.7669127,113.921198 C76.6081733,116.100341 83.0844857,116.100341 88.9257464,113.921198 C91.4556686,112.891662 93.7600151,111.410023 95.7168549,109.554678 C98.0573927,107.192572 99.7501557,104.306734 100.642422,101.157525 C101.609712,97.3276765 102.060791,93.3939032 101.984538,89.4531854 C102.08961,85.4801318 101.656488,81.5108319 100.696106,77.6454962 Z M90.6704976,97.8115825 C90.2666469,99.8856056 89.2455216,101.802029 87.7312628,103.327866 C85.657899,105.331265 82.8164366,106.420623 79.8798824,106.337923 C76.9773942,106.407366 74.1743894,105.317853 72.1358713,103.327866 C70.6065683,101.812373 69.5829814,99.8913303 69.1966366,97.8115825 C68.6693758,95.0683198 68.4266023,92.2814158 68.4718938,89.4919415 L68.4718938,89.4919415 L68.4718938,88.7168197 C68.4572936,86.1167931 68.69997,83.5213367 69.1966366,80.9656014 C69.5772768,78.8802325 70.6014866,76.953519 72.1358713,75.436399 C74.181713,73.4655531 76.9873452,72.4031011 79.8798824,72.5038547 C82.8059279,72.3929397 85.6487797,73.4547643 87.7312628,75.436399 C89.2510313,76.9635725 90.272836,78.8857614 90.6704976,80.9656014 C91.2001328,83.7520844 91.4428893,86.5820652 91.3952404,89.4144293 C91.4381628,92.229514 91.1954303,95.0419073 90.6704976,97.8115825 L90.6704976,97.8115825 Z" id="Shape" fill="#FFFFFF"></path>
                </g>
            </g>
        </g>
    </g>
</svg>