<?xml version="1.0" encoding="UTF-8"?>
<svg width="320px" height="147px" viewBox="0 0 320 147" version="1.1" xmlns="http://www.w3.org/2000/svg" xmlns:xlink="http://www.w3.org/1999/xlink">
    <title>parks-logo-lockup-white-min</title>
    <g id="Page-1" stroke="none" stroke-width="1" fill="none" fill-rule="evenodd">
        <g id="parks-logo-lockup-white-min" fill="#FFFFFF" fill-rule="nonzero">
            <path d="M142.1,138.1 C142.1,138.2 142,138.4 142,138.6 C141.9,138.9 141.9,139.1 141.8,139.3 C141.7,139.5 141.7,139.7 141.6,139.9 L141.6,140.9 C141.8,141.5 141.8,142.1 141.6,142.6 C142.1,142.5 142.5,142.4 142.9,142.3 L144.3,142.1 C146.2,141.7 148.2,141.4 150.2,140.9 C150.7,140.8 151.3,140.6 152,140.3 C154.9,139.4 156.9,138.8 158.3,139.2 C158.4,139.2 158.9,139 159.3,138.8 C160.1,138.4 161.2,138 162.6,137.9 C164.5,137.8 166,137.5 167.4,137.1 C168.1,136.9 168.8,136.5 169.5,136.1 C170.5,135.5 171.5,135 172.8,134.6 C173.4,134.5 174,134.3 174.7,134.1 C176.1,133.7 177.6,133.3 179,132.8 L180.3,132.4 C179.8,132.3 179.3,132.2 178.8,132 C178,131.7 177.5,131.3 177.2,131 C177.1,131 177,130.9 176.9,130.9 L176.7,130.9 C175.1,131.1 173.5,131.7 171.9,132.2 C169.6,133.1 167.2,133.9 164.3,133.9 C159.5,133.9 155.9,134.4 152.4,135.4 C149.3,136.2 146.8,137.3 144.7,138.7 C144.1,139.1 143.3,139.1 142.7,138.6 C142.4,138.5 142.2,138.3 142.1,138.1 M138.4,146.9 C138,146.9 137.7,146.9 137.3,146.7 C136.7,146.3 136.3,145.8 136.2,145.2 C136,144.5 136.2,143.7 136.7,143 L136.9,142.7 C137,142.5 137.2,142.2 137.4,142 C137.6,141.8 137.9,141.6 138,141.5 C137.9,140.6 138,140 138,139.5 C138.1,139 138.2,138.6 138.3,138.2 C138.4,138.1 138.4,137.9 138.4,137.8 C138.7,136.6 138.9,135.5 139,134.5 C139.1,133.6 139.1,133.5 138.9,133.3 C138.4,132.7 137.5,132.2 136.6,131.8 C136.2,131.5 135.7,131.3 135.3,131.1 L126.5,125.7 C126.3,125.5 125.9,125.3 125.5,125.1 C122.6,123.6 120.6,122.5 120.3,120.9 C120.3,120.7 120,120.2 119.9,119.9 C119.7,119.9 119.4,119.8 119.2,119.8 C118.3,119.7 116.8,119.6 115.7,118.4 L115,117.7 C113.4,116.1 112,114.7 111.8,111.1 L111.8,109.7 C111.8,108.3 111.8,107.4 111.2,106.8 C110.9,106.5 110.5,106.3 109.9,106.1 C109.3,105.8 108.5,105.5 107.8,104.9 C107.6,104.7 107.3,104.5 107.1,104.2 C106.8,103.8 106.3,103.3 106,103.2 C103.8,102.5 101.1,102.4 98.3,102.4 L6.2,102.3 C5.6,102.3 5,102.4 4.6,102.4 C3.5,102.6 2.2,102.7 1.2,101.8 C0.2,100.9 0,99.5 0,98.3 L0,91.9 C0,91.6 0.1,91.2 0.3,91 C1.2,89.6 2.8,88.9 4.3,88.2 C4.8,88 5.4,87.7 5.7,87.5 C6.5,87 7.2,86.3 7.9,85.6 C8.5,85 9.1,84.4 9.7,83.9 C10.6,83.2 11.6,82.7 12.6,82.1 C13.5,81.7 14.3,81.3 14.8,80.8 C15.2,80.5 15.5,79.9 15.8,79.3 C16.2,78.6 16.6,77.8 17.3,77.2 C18,76.4 18.9,75.9 19.7,75.5 C21.5,74.5 21.4,74.4 21.2,73.7 C21,73.4 20.9,73.1 20.8,72.8 C20.2,71.7 19.8,70.7 20.1,68.7 C20.1,68.5 20.2,68.3 20.2,68.1 C20.3,67.7 20.4,67 20.3,66.8 C20.2,66.7 19.9,66.7 19.8,66.7 C19.3,66.7 18.3,66.7 17.5,65.9 C16.8,65.1 16.9,64 17,63.2 C17.1,62.3 17,61.7 17,61.2 C16.8,59.2 17.4,58.2 19.9,57.2 C27.1,54.4 32.9,53.4 38.2,54.2 C38.5,54.2 39,54.1 39.5,54.1 C40.2,53.9 41.2,53.7 42.2,53.9 L47.8,55 C50.2,55.4 51.3,55.9 53,57.5 C53.9,58.3 54.3,58.2 55.8,57.6 C56.6,57.4 57.5,57 58.5,56.9 C60.3,56.7 61.9,56.8 63.5,57 C64.2,57 64.9,57.1 65.7,57.1 C66.4,57.2 67.5,56.8 68.4,56.4 C68.9,56.3 69.3,56.1 69.7,56 C70.6,55.7 71.5,55.6 72.4,55.4 C72.8,55.4 73.2,55.3 73.6,55.2 C73.6,55.2 73.6,55.1 73.7,55.1 C73.8,54.8 73.9,54.6 74.1,54.3 C74.9,53.3 76,52.6 76.9,52.1 L77.2,51.9 C78.2,51.3 79,50.7 79.7,50.1 C80.9,48.8 82.5,48.9 83.5,49 C83.9,49 84.4,49 84.6,48.9 C85.3,48.7 84.7,46.5 84.3,45.2 C84,44.3 83.8,43.5 83.8,42.8 C83.6,40.8 84.8,39.4 85.7,38.2 C86.4,37.3 86.8,36.7 86.8,36.2 C86.8,36.1 86.7,35.9 86.7,35.8 C86.1,36.1 85.1,36.4 84,35.9 C82.2,35.1 81.2,32.1 81.7,30.5 C82.2,29.1 83.6,28.2 84.6,27.5 L85,27.3 C85.9,26.7 86.8,26.2 87.7,25.7 C89,25 90.1,24.4 91.1,23.6 C91.5,23.3 91.8,22.9 92.2,22.6 C93,21.8 93.8,21 94.8,20.4 C94.9,20.1 95,19.6 95,19.3 C95.1,18.7 95.2,18.1 95.4,17.6 C96.4,15.1 98.9,13.1 101,11.4 C101.8,10.8 102.4,10.3 103,9.8 L104,8.8 C105.6,7.3 107.3,5.8 109.3,4.5 C110.9,3.5 113.1,2.2 115.1,1.5 C117.7,0.5 119,0.6 121.5,0.7 L121.9,0.7 C126.6,1 131.4,0.9 136.1,0.8 C138.4,0.7 140.8,0.6 143.1,0.6 C143.7,0.6 144.7,0.5 145.7,0.4 C149,8.29197822e-16 152.8,-0.5 154.9,1.4 C155.8,2.1 156.3,3.2 156.4,4.5 C156.4,5.5 156,6.3 155.6,6.8 C155.5,7 155.4,7.2 155.4,7.3 C155.4,7.3 155.5,7.5 155.5,7.6 C155.9,8.1 156.5,9 156.3,10.4 C156.2,11 156,11.6 155.8,12.1 C155.7,12.9 155.4,13.6 155.4,14.2 C155.4,14.7 155.5,15.3 155.6,15.9 C155.8,16.9 155.2,17.8 154.3,18.1 C153.3,18.3 152.3,17.7 152.1,16.7 C151.8,15.8 151.8,14.9 151.8,14.1 C151.8,13.1 152.1,12.1 152.3,11.2 C152.5,10.7 152.6,10.2 152.7,9.8 L152.5,9.6 C152.2,9.2 151.7,8.4 151.7,7.3 C151.7,6.3 152.2,5.6 152.5,5 C152.6,4.9 152.7,4.6 152.7,4.5 C152.7,4.2 152.6,4.2 152.6,4.1 C151.6,3.3 148.1,3.8 146.1,4 C145,4.1 144,4.3 143.1,4.3 C140.8,4.3 138.5,4.3 136.2,4.4 C131.4,4.5 126.5,4.6 121.7,4.4 L121.3,4.3 C118.9,4.2 118.3,4.2 116.4,4.9 C114.6,5.5 112.6,6.8 111.2,7.6 C109.5,8.7 108,10 106.5,11.5 L105.5,12.5 C104.8,13 104.1,13.6 103.3,14.2 C101.5,15.7 99.4,17.3 98.8,19 C98.7,19.1 98.7,19.5 98.6,19.8 C98.5,21 98.3,22.4 97.1,23.2 C96.2,23.8 95.5,24.5 94.7,25.2 C94.3,25.6 93.9,26 93.5,26.3 C92.2,27.4 90.8,28.2 89.4,28.9 C88.6,29.4 87.8,29.8 87,30.3 L86.6,30.6 C86.2,30.8 85.3,31.4 85.1,31.7 C85.2,31.7 85.3,32.1 85.4,32.3 C85.8,32.1 86.5,31.9 87.2,31.9 C89.3,32.1 90.4,34.5 90.4,36.1 C90.5,38 89.4,39.4 88.5,40.5 C87.8,41.4 87.4,42 87.4,42.6 C87.4,42.9 87.6,43.6 87.8,44.2 C88.5,46.5 89.7,50.7 86.1,52.3 C85.1,52.7 84.1,52.7 83.3,52.6 L82.2,52.6 C81.4,53.6 80.3,54.3 79.2,55 L78.8,55.2 C78.1,55.6 77.4,56 77,56.5 C77,56.6 76.9,56.8 76.8,56.9 C76.5,57.5 75.9,58.5 74.4,58.8 L72.9,59.1 C72.2,59.1 71.5,59.3 70.8,59.5 C70.4,59.6 70.1,59.7 69.7,59.9 C68.4,60.3 67,60.8 65.5,60.8 C64.7,60.7 63.9,60.7 63.2,60.6 C61.7,60.5 60.4,60.3 59,60.5 C58.3,60.6 57.7,60.8 57.1,61.1 C55.4,61.6 53.1,62.5 50.6,60.1 C49.5,59.1 49,58.9 47.2,58.6 L41.5,57.5 C41.2,57.4 40.7,57.5 40.2,57.6 C39.5,57.8 38.7,57.9 37.7,57.8 C33,57.1 27.8,58 21.2,60.6 C20.9,60.7 20.7,60.8 20.6,60.9 C20.7,61.4 20.7,62.1 20.6,63.1 C21.1,63.2 21.5,63.3 21.9,63.5 C24.5,64.9 24,67.5 23.8,68.7 L23.7,69.2 C23.6,70.2 23.7,70.4 24.1,71.3 C24.2,71.6 24.4,71.9 24.5,72.3 C26.1,76.1 23.1,77.8 21.5,78.7 C20.9,79 20.2,79.4 19.9,79.7 C19.6,80 19.3,80.5 19,81 C18.6,81.9 18.1,82.8 17.2,83.6 C16.3,84.3 15.3,84.8 14.3,85.3 C13.4,85.8 12.6,86.2 12,86.7 L10.5,88.2 C9.7,89 8.8,89.8 7.7,90.6 C7.1,90.9 6.5,91.2 5.7,91.5 C5.2,91.8 4.2,92.2 3.7,92.6 L3.7,98.9 C3.9,98.8 4,98.8 4.2,98.8 C4.7,98.7 5.4,98.7 6.2,98.7 L98.3,98.7 C101.3,98.7 104.5,98.8 107.2,99.8 C108.4,100.2 109.3,101.1 109.8,101.8 L110.1,102.1 C110.4,102.3 110.8,102.5 111.3,102.7 C112.1,103 113,103.4 113.8,104.2 C115.5,105.9 115.5,108.1 115.5,109.8 L115.5,111 C115.6,113.1 116.2,113.7 117.6,115.1 L118.3,115.9 C118.5,116.1 118.9,116.1 119.5,116.2 C120.3,116.2 121.2,116.3 122.1,117 C123,117.6 123.6,119.1 123.8,119.9 C124.4,120.5 126.4,121.5 127.2,121.9 C127.7,122.2 128.1,122.4 128.4,122.6 L137.2,128 C137.6,128.2 137.9,128.4 138.3,128.5 C139.5,129.1 140.8,129.8 141.7,131.1 C142.8,132.4 142.7,133.6 142.6,134.6 C142.8,134.4 143,134.1 143.2,133.8 C143.5,133.3 144,132.9 144.3,132.6 C144.8,132.2 145,131.9 145.1,131.7 C145,131.7 144.8,131.4 144.7,131.2 C144.2,130.4 143.6,129.4 143.9,128.2 C144,127.7 144.3,127.3 144.7,127.1 C144.9,127 145.2,126.8 145.6,126.6 C146.2,126.2 147.7,125.4 148.7,124.8 C147.3,121.8 147.7,118.1 148.2,114.8 C148.3,113.8 148.4,112.9 148.5,112 C148.5,111.2 148.5,110.4 148.6,109.7 C148.6,108.7 149.5,107.9 150.5,107.9 C151.5,108 152.3,108.8 152.2,109.8 C152.2,110.6 152.1,111.4 152.1,112.2 C152,113.2 151.9,114.2 151.8,115.3 C151.4,118.4 150.9,121.9 152.4,124 C152.7,124.4 152.8,125.1 152.7,125.6 C152.4,126.8 151.1,127.7 147.9,129.5 C148.3,130.2 148.8,131.1 148.7,132.3 C148.6,132.5 148.6,132.6 148.5,132.8 C149.4,132.4 150.4,132.1 151.4,131.9 C155.2,130.8 159.2,130.3 164.3,130.3 C166.6,130.3 168.6,129.6 170.7,128.8 C172.4,128.2 174.2,127.6 176.1,127.3 C177.8,127 178.6,127.6 179.4,128.1 C179.6,128.3 179.8,128.5 180.1,128.6 C181,128.9 182,128.8 183.1,128.7 C184.3,128.6 185.7,128.4 187,128.8 C187.8,129 188.4,129.7 188.4,130.6 C188.3,133.7 184.1,135 182.1,135.7 L180.1,136.3 C178.6,136.7 177.2,137.2 175.7,137.6 C175,137.8 174.3,138 173.7,138.2 C172.9,138.4 172.1,138.8 171.3,139.3 C170.4,139.7 169.5,140.2 168.5,140.6 C166.8,141.1 165,141.4 162.7,141.5 C162.1,141.6 161.4,141.8 160.8,142.1 C159.8,142.6 158.6,143.1 157.2,142.7 C156.6,142.6 154.3,143.4 153.2,143.8 C152.4,144.1 151.6,144.3 151,144.5 C149,144.9 146.9,145.3 144.9,145.7 L143.6,145.9 C142.3,146.1 141.1,146.4 139.9,146.6 C139.5,146.8 139,146.9 138.4,146.9 L138.4,146.9 Z" id="state"></path>
            <path d="M147.4,26.3 L156.1,40 L156.1,26.3 C156.1,26.3 157,25.6 159.4,25.6 C161.8,25.6 162.7,26.3 162.7,26.3 L162.7,50.1 C162.7,50.1 161.8,50.8 159.4,50.8 C157.1,50.8 156.2,50.2 156.2,50.2 L147.5,36.4 L147.5,50.1 C147.5,50.1 146.5,50.8 144.2,50.8 C141.9,50.8 140.9,50.1 140.9,50.1 L140.9,26.3 C140.9,26.3 141.8,25.6 144.2,25.6 C146.5,25.6 147.4,26.3 147.4,26.3 Z M180.3,39.8 L174.1,39.8 L174.1,45.9 L183.2,45.9 C183.2,45.9 183.8,46.7 183.8,48.3 C183.8,50 183.2,50.8 183.2,50.8 L167.4,50.8 L167.4,25.6 L182.4,25.6 C182.4,25.6 183.2,26.4 183.2,28.1 C183.2,29.7 182.4,30.5 182.4,30.5 L174.1,30.5 L174.1,35 L180.3,35 C180.3,35 181,35.8 181,37.4 C181,39.1 180.3,39.8 180.3,39.8 L180.3,39.8 Z M191.9,50.1 L185.1,26.3 C185.1,26.3 186.1,25.6 188.5,25.6 C190.9,25.6 191.8,26.3 191.8,26.3 L195.2,38.4 C195.5,39.3 195.6,39.9 195.7,40.3 C195.7,40.3 195.9,39.2 196.1,38.4 L199,26.3 C199,26.3 200.2,25.6 201.8,25.6 C203.4,25.6 204.4,26.3 204.4,26.3 L207.3,38.4 L207.7,40.3 C207.7,40 208,39.1 208.2,38.4 L211.7,26.3 C211.7,26.3 212.7,25.6 215,25.6 C217.3,25.6 218.3,26.3 218.3,26.3 L211.4,50.1 C211.4,50.1 210.4,50.7 208.3,50.8 C205.7,50.8 204.8,50.1 204.8,50.1 L202.1,39.1 C201.9,38.2 201.8,37.3 201.7,37.2 L201.3,39.1 L198.6,50.1 C198.6,50.1 197.6,50.8 195.3,50.8 C192.9,50.8 191.9,50.1 191.9,50.1 L191.9,50.1 Z M230.3,26.3 L233.3,31.5 C234.3,33.2 234.8,35.2 234.9,35.4 C235,35.2 235.5,33.2 236.5,31.5 L239.5,26.3 C239.5,26.3 240.4,25.6 242.6,25.6 C245.1,25.6 246.2,26.4 246.2,26.4 L238.2,40.2 L238.2,50.1 C238.2,50.1 237.3,50.8 234.9,50.8 C232.6,50.8 231.6,50.1 231.6,50.1 L231.6,40.1 L223.7,26.4 C223.7,26.4 224.8,25.6 227.2,25.6 C229.4,25.6 230.3,26.3 230.3,26.3 L230.3,26.3 Z M258.2,46.2 C261.8,46.2 263.8,42.9 263.8,38.2 C263.8,33.5 261.8,30.3 258.2,30.3 C254.6,30.3 252.7,33.5 252.7,38.2 C252.7,42.9 254.6,46.2 258.2,46.2 M258.2,51 C249.7,51 246,46.1 246,38.2 C246,30.4 249.7,25.4 258.2,25.4 C266.7,25.4 270.4,30.4 270.4,38.2 C270.4,46.1 266.7,51 258.2,51 L258.2,51 Z M282.5,30.3 C281.4,30.3 280.6,30.5 280.6,30.5 L280.6,36.7 L282.4,36.7 C285,36.7 286.1,34.9 286.1,33.5 C286.1,31.7 284.8,30.3 282.5,30.3 M280.6,50.1 C280.6,50.1 279.6,50.8 277.3,50.8 C274.9,50.8 274,50.1 274,50.1 L274,26.6 C274,26.6 276.7,25.4 281.7,25.4 C289.2,25.4 292.7,28.2 292.7,33.3 C292.7,38.2 288.9,40.3 288.4,40.3 L294.2,50 C293.5,50.4 291.5,50.8 290.2,50.8 C288.5,50.8 287.1,50.2 287.1,50.2 L282.7,42.5 C282.5,42 282.1,41.6 281.5,41.6 L280.6,41.6 L280.6,50.1 Z M319.7,49.9 C319.7,49.9 318,50.8 315.3,50.8 C312.9,50.8 311.9,50.2 311.9,50.2 L303.4,38.6 L303.4,50.1 C303.4,50.1 302.5,50.8 300.1,50.8 C297.8,50.8 296.8,50.1 296.8,50.1 L296.8,26.3 C296.8,26.3 297.8,25.6 300.1,25.6 C302.5,25.6 303.4,26.3 303.4,26.3 L303.4,37.5 L311.7,26.3 C311.7,26.3 312.6,25.6 315,25.6 C317.7,25.6 318.7,26.5 318.7,26.5 L310.7,37.5 L319.7,49.9 Z M152.4,61.8 C152.7,62.9 152,63.8 151.4,64 C150.6,63.5 149.3,63 147.7,63 C145.9,63 144.7,63.8 144.7,65 C144.7,66.1 145.6,66.5 147.6,67.2 L149.9,68 C152.5,68.9 153.7,70 153.7,72.3 C153.7,75.2 151.7,77.4 147.2,77.4 C144,77.4 142.1,76.2 141.4,75.6 C141.2,74.8 141.7,73.8 142.3,73.4 C143.1,74 145.3,75 147.5,75 C149.3,75 150.5,74.2 150.5,72.8 C150.5,71.9 149.9,71.4 148.7,71 L144.9,69.7 C142.9,69.1 141.5,67.7 141.5,65.5 C141.5,62.5 143.6,60.6 147.7,60.6 C150.2,60.6 151.7,61.3 152.4,61.8 L152.4,61.8 Z M155.1,63.2 C155.1,63.2 154.8,62.8 154.8,61.9 C154.8,61.1 155.1,60.8 155.1,60.8 L167.4,60.8 C167.4,60.8 167.7,61.1 167.7,61.9 C167.7,62.8 167.4,63.2 167.4,63.2 L162.9,63.2 L162.9,76.9 C162.9,76.9 162.4,77.2 161.3,77.2 C160.1,77.2 159.6,76.9 159.6,76.9 L159.6,63.2 L155.1,63.2 Z M172.1,71 L177,71 L175.1,66.5 C174.9,66.1 174.6,65 174.5,64.8 C174.5,64.9 174.2,66 174,66.5 L172.1,71 Z M176.1,61.1 L182.7,76.8 C182.7,76.8 182.2,77.2 181.1,77.2 C179.9,77.2 179.5,76.9 179.5,76.9 L178,73.4 L171.1,73.4 L169.6,76.9 C169.6,76.9 169.2,77.2 168.1,77.2 C166.9,77.2 166.4,76.8 166.4,76.8 L173,61.1 C173,61.1 173.4,60.8 174.5,60.8 C175.7,60.8 176.1,61.1 176.1,61.1 Z M181.7,63.2 C181.7,63.2 181.4,62.8 181.4,61.9 C181.4,61.1 181.7,60.8 181.7,60.8 L194,60.8 C194,60.8 194.3,61.1 194.3,61.9 C194.3,62.8 194,63.2 194,63.2 L189.5,63.2 L189.5,76.9 C189.5,76.9 189.1,77.2 187.9,77.2 C186.7,77.2 186.2,76.9 186.2,76.9 L186.2,63.2 L181.7,63.2 Z M204.9,69.6 L199.9,69.6 L199.9,74.8 L206.7,74.8 C206.7,74.8 207,75.2 207,76 C207,76.8 206.7,77.2 206.7,77.2 L196.6,77.2 L196.6,60.8 L206.2,60.8 C206.2,60.8 206.5,61.1 206.5,61.9 C206.5,62.7 206.2,63.1 206.2,63.1 L199.9,63.1 L199.9,67.3 L204.9,67.3 C204.9,67.3 205.2,67.6 205.2,68.4 C205.2,69.3 204.9,69.6 204.9,69.6 L204.9,69.6 Z M221.6,75 C224.6,75 226,72.6 226,69 C226,65.4 224.6,63 221.6,63 C218.7,63 217.2,65.4 217.2,69 C217.2,72.6 218.7,75 221.6,75 M221.6,77.4 C216.1,77.4 213.9,74.1 213.9,69 C213.9,63.9 216.1,60.6 221.6,60.6 C227.1,60.6 229.3,63.9 229.3,69 C229.3,74.1 227.1,77.4 221.6,77.4 Z M240.3,69.6 L235.4,69.6 L235.4,76.9 C235.4,76.9 234.9,77.2 233.7,77.2 C232.6,77.2 232.1,76.9 232.1,76.9 L232.1,60.8 L241.6,60.8 C241.6,60.8 242,61.1 242,61.9 C242,62.7 241.6,63.1 241.6,63.1 L235.4,63.1 L235.4,67.3 L240.3,67.3 C240.3,67.3 240.7,67.6 240.7,68.4 C240.7,69.3 240.3,69.6 240.3,69.6 L240.3,69.6 Z M149.1,97.2 C152,97.2 153.5,94.8 153.5,91.3 C153.5,87.7 152,85.2 149.1,85.2 C146.1,85.2 144.7,87.7 144.7,91.3 C144.7,94.8 146.1,97.2 149.1,97.2 M149.1,99.6 C143.6,99.6 141.4,96.3 141.4,91.3 C141.4,86.2 143.6,82.9 149.1,82.9 C154.5,82.9 156.8,86.2 156.8,91.3 C156.8,96.3 154.5,99.6 149.1,99.6 Z M164.8,85.2 C163.4,85.2 162.8,85.5 162.8,85.5 L162.8,90.8 L164.6,90.8 C166.8,90.8 167.8,89.5 167.8,88 C167.8,86.4 166.9,85.2 164.8,85.2 M164.9,93.2 L162.8,93.2 L162.8,99.1 C162.8,99.1 162.3,99.5 161.2,99.5 C160,99.5 159.6,99.1 159.6,99.1 L159.6,83.6 C159.6,83.6 161.2,82.9 164.5,82.9 C168.9,82.9 171,84.8 171,87.9 C171,91.1 168.7,93.2 164.9,93.2 L164.9,93.2 Z M178.8,85.2 C177.4,85.2 176.8,85.5 176.8,85.5 L176.8,90.8 L178.6,90.8 C180.8,90.8 181.8,89.5 181.8,88 C181.8,86.4 180.9,85.2 178.8,85.2 M178.9,93.2 L176.8,93.2 L176.8,99.1 C176.8,99.1 176.4,99.5 175.2,99.5 C174.1,99.5 173.6,99.1 173.6,99.1 L173.6,83.6 C173.6,83.6 175.2,82.9 178.5,82.9 C182.9,82.9 185,84.8 185,87.9 C185,91.1 182.7,93.2 178.9,93.2 L178.9,93.2 Z M194.6,97.2 C197.5,97.2 199,94.8 199,91.3 C199,87.7 197.5,85.2 194.6,85.2 C191.6,85.2 190.1,87.7 190.1,91.3 C190.1,94.8 191.6,97.2 194.6,97.2 M194.6,99.6 C189.1,99.6 186.9,96.3 186.9,91.3 C186.9,86.2 189.1,82.9 194.6,82.9 C200,82.9 202.2,86.2 202.2,91.3 C202.2,96.3 200,99.6 194.6,99.6 Z M210.1,85.2 C209,85.2 208.3,85.5 208.3,85.5 L208.3,90.8 L210.7,90.8 C212.5,90.8 213.3,89.5 213.3,88 C213.3,86.4 212.3,85.2 210.1,85.2 M208.3,99.1 C208.3,99.1 207.8,99.5 206.6,99.5 C205.5,99.5 205,99.1 205,99.1 L205,83.6 C205,83.6 206.8,82.9 209.8,82.9 C214.5,82.9 216.5,84.8 216.5,87.9 C216.5,91 214.3,92.5 213.2,92.6 L217.4,99.1 C217.1,99.3 216.1,99.5 215.4,99.5 C214.5,99.5 213.9,99.2 213.9,99.2 L210.5,93.8 C210.2,93.4 210,93.2 209.5,93.2 L208.3,93.2 L208.3,99.1 Z M218.2,85.4 C218.2,85.4 217.9,85 217.9,84.2 C217.9,83.4 218.2,83 218.2,83 L230.5,83 C230.5,83 230.8,83.4 230.8,84.2 C230.8,85 230.5,85.4 230.5,85.4 L226,85.4 L226,99.1 C226,99.1 225.6,99.5 224.4,99.5 C223.2,99.5 222.7,99.1 222.7,99.1 L222.7,85.4 L218.2,85.4 Z M242.6,92.6 L242.6,83.3 C242.6,83.3 243.1,83 244.2,83 C245.4,83 245.8,83.3 245.8,83.3 L245.8,92 C245.8,96.7 244.6,99.6 239.4,99.6 C234.2,99.6 232.9,96.7 232.9,92 L232.9,83.3 C232.9,83.3 233.4,83 234.6,83 C235.7,83 236.2,83.3 236.2,83.3 L236.2,92.6 C236.2,95.6 237,97.2 239.4,97.2 C241.8,97.2 242.6,95.6 242.6,92.6 L242.6,92.6 Z M252.4,83.3 L259.6,94.3 L259.5,83.3 C259.5,83.3 260,83 261.2,83 C262.3,83 262.8,83.3 262.8,83.3 L262.8,99.1 C262.8,99.1 262.3,99.5 261.2,99.5 C260,99.5 259.6,99.2 259.6,99.2 L252.5,88.3 L252.5,99.1 C252.5,99.1 252,99.5 250.8,99.5 C249.7,99.5 249.2,99.1 249.2,99.1 L249.2,83.3 C249.2,83.3 249.7,83 250.8,83 C252,83 252.4,83.3 252.4,83.3 L252.4,83.3 Z M269.6,83.3 L269.6,99.1 C269.6,99.1 269.1,99.5 268,99.5 C266.8,99.5 266.3,99.1 266.3,99.1 L266.3,83.3 C266.3,83.3 266.8,83 268,83 C269.1,83 269.6,83.3 269.6,83.3 L269.6,83.3 Z M272.2,85.4 C272.2,85.4 271.8,85 271.8,84.2 C271.8,83.4 272.2,83 272.2,83 L284.5,83 C284.5,83 284.8,83.4 284.8,84.2 C284.8,85 284.5,85.4 284.5,85.4 L279.9,85.4 L279.9,99.1 C279.9,99.1 279.5,99.5 278.3,99.5 C277.1,99.5 276.7,99.1 276.7,99.1 L276.7,85.4 L272.2,85.4 Z M288.7,83.3 L291.2,87.8 C291.8,88.8 292.3,90.1 292.3,90.3 C292.4,90.1 292.8,88.8 293.5,87.8 L296,83.3 C296,83.3 296.5,83 297.6,83 C298.8,83 299.3,83.4 299.3,83.4 L294,92.6 L294,99.1 C294,99.1 293.5,99.5 292.3,99.5 C291.2,99.5 290.7,99.1 290.7,99.1 L290.7,92.5 L285.4,83.4 C285.4,83.4 286,83 287.2,83 C288.3,83 288.7,83.3 288.7,83.3 L288.7,83.3 Z M298,96.6 C298,96.6 297.9,96.5 297.9,96.4 C297.9,96.2 298,96.2 298,96.2 L300.5,96.2 C300.5,96.2 300.6,96.2 300.6,96.4 C300.6,96.5 300.5,96.6 300.5,96.6 L299.5,96.6 L299.5,99.6 C299.5,99.6 299.4,99.7 299.3,99.7 C299.1,99.7 299,99.6 299,99.6 L299,96.6 L298,96.6 Z M302.9,99.5 L302.5,99.5 L301.7,97.5 C301.7,97.4 301.6,97.2 301.6,97.2 L301.6,97.5 L301.4,99.6 C301.4,99.6 301.3,99.7 301.2,99.7 C301,99.7 300.9,99.6 300.9,99.6 L301.1,96.2 L301.7,96.2 L302.6,98.5 L302.7,98.9 C302.7,98.9 302.8,98.6 302.8,98.5 L303.7,96.2 L304.3,96.2 L304.5,99.6 C304.5,99.6 304.4,99.7 304.2,99.7 C304.1,99.7 304,99.6 304,99.6 L303.8,97.5 L303.8,97.2 C303.8,97.2 303.7,97.4 303.7,97.5 L302.9,99.5 Z" id="text"></path>
        </g>
    </g>
</svg>