<?xml version="1.0" encoding="UTF-8"?>
<svg width="302px" height="170px" viewBox="0 0 302 170" version="1.1" xmlns="http://www.w3.org/2000/svg" xmlns:xlink="http://www.w3.org/1999/xlink">
    <title>nyc-small-business-services</title>
    <g id="Page-1" stroke="none" stroke-width="1" fill="none" fill-rule="evenodd">
        <g id="nyc-small-business-services" fill="#FFFFFF" fill-rule="nonzero">
            <g id="Layer_2">
                <path d="M63.19,30.11 C63.19,23.7 63.19,17.29 63.19,10.87 C63.24,4.72 67.24,0.76 73.42,0.7 C78.35,0.7 83.29,0.86 88.22,0.64 C92.32,0.47 96.04,0.76 98.61,4.54 C99.86,6.39 101.35,6.67 102.69,4.64 C105.37,0.56 109.36,0.47 113.63,0.64 C118.35,0.84 123.09,0.64 127.83,0.64 C134.22,0.64 138.83,4.51 137.83,10.64 C136.3,20.78 144.4,24.5 149.4,30.36 C150.53,31.69 151.4,30.89 152.31,30 C157.97,24.24 165.23,19.61 163.4,9.45 C162.61,5.08 167.78,0.75 172.4,0.67 C177.73,0.57 183.05,0.67 188.4,0.67 C197.7,0.67 200.65,3.6 200.67,12.84 L200.67,19.72 C206.59,13.61 211.4,8.72 216.05,3.78 C217.825903,1.68232802 220.462973,0.511115477 223.21,0.6 C241.56,0.75 259.9,0.67 278.21,0.68 C280.15,0.68 282.08,0.42 283.71,2.1 C288.94,7.46 294.63,12.43 299.47,18.1 C302.92,22.17 300.17,27.64 300.97,32.4 C301.71,36.83 299.79,39.87 296.44,42.52 C294.946331,43.7884155 293.039067,44.464498 291.08,44.42 C283.19,44.34 275.3,44.42 267.41,44.37 C265.54,44.37 262.98,44.93 263.32,41.77 C263.73,37.87 261.5,37.77 258.64,37.82 C253.12,37.94 247.59,37.96 242.07,37.82 C239.28,37.74 238.22,38.69 238.3,41.55 C238.47,47.47 238.45,53.39 238.3,59.31 C238.24,61.95 238.87,63.31 241.88,63.21 C247.99,63.03 254.11,63.14 260.22,63.16 C261.98,63.16 263.53,62.87 263.22,60.63 C262.7,56.82 264.89,56.63 267.82,56.63 C274.92,56.77 282.03,56.63 289.13,56.68 C296.95,56.68 300.25,60.77 301.13,68.54 C302.2,78.29 298.61,84.93 291.69,91.64 C285.15,97.98 278.95,101.28 269.61,100.76 C254.67,99.93 239.61,100.45 224.61,100.6 C221.03,100.6 218.61,99.29 215.74,97.2 C202.81,87.84 198.13,75.59 200.51,60.02 C201.22,55.41 200.62,50.6 200.62,45.89 L199.04,44.5 C197.15,46.88 195.41,49.41 193.33,51.61 C189.1,56.22 185,61.11 180,65 C171.64,71.51 168.25,79.41 169.55,90 C170.31,96.19 165.41,100.57 159.18,100.63 C154.05,100.63 148.93,100.63 143.8,100.63 C135.59,100.63 131.24,96.98 132.1,89.05 C133.16,79.29 129.89,72.36 122.54,66.05 C115.19,59.74 109.1,52.37 102.45,45.45 L100.83,46.18 L100.83,89 C100.83,97 97.02,99.77 89.01,100.82 C74.83,102.68 64.01,98.5 55.33,86.98 C50.8,80.98 44.89,75.98 39.61,70.48 L38.23,71.18 C38.23,77.58 38.23,83.99 38.23,90.39 C38.2944027,93.1346465 37.227569,95.7850584 35.2796689,97.7197204 C33.3317687,99.6543824 30.6741435,100.703118 27.93,100.62 C22.6,100.68 17.28,100.62 11.93,100.62 C4.36,100.62 0.58,96.78 0.58,89.11 C0.58,63.27 0.58,37.43 0.58,11.59 C0.58,4.52 4.42,1.59 11.29,0.59 C26.37,-1.65 37.82,3.25 46.91,15.38 C51.19,21.1 56.68,25.9 61.63,31.11 L63.19,30.11 Z" id="Path"></path>
                <path d="M6.89,129.4 C7.1547243,129.935904 7.5460025,130.39926 8.03,130.75 C8.54030532,131.109952 9.11352456,131.371123 9.72,131.52 C10.373887,131.685061 11.0456021,131.769026 11.72,131.77 C12.2222931,131.767467 12.7236926,131.727355 13.22,131.65 C13.7394292,131.574673 14.2448838,131.423037 14.72,131.2 C15.1739583,130.98931 15.5740495,130.678128 15.89,130.29 C16.2106578,129.861285 16.3731769,129.334865 16.35,128.8 C16.3742835,128.21749 16.1529783,127.651529 15.74,127.24 C15.2702567,126.804373 14.7199563,126.464682 14.12,126.24 C13.385575,125.949502 12.630047,125.715489 11.86,125.54 C11.01,125.34 10.16,125.12 9.29,124.87 C8.41099698,124.652925 7.54605681,124.382422 6.7,124.06 C5.88628021,123.756576 5.12147173,123.335426 4.43,122.81 C3.76205387,122.292656 3.213007,121.637892 2.82,120.89 C2.38547248,120.029273 2.17238051,119.073796 2.2,118.11 C2.17278923,116.99952 2.44202873,115.901851 2.98,114.93 C3.4790825,114.049097 4.16104326,113.285301 4.98,112.69 C5.84689376,112.078242 6.81513289,111.624591 7.84,111.35 C8.88387737,111.070353 9.95932968,110.925839 11.04,110.9199 C12.2458775,110.915589 13.4478873,111.056607 14.62,111.34 C15.6968335,111.594885 16.715076,112.053094 17.62,112.69 C18.5036513,113.303058 19.2272515,114.119251 19.73,115.07 C20.2793891,116.156379 20.5475685,117.363186 20.51,118.58 L15.45,118.58 C15.4369669,117.966585 15.2829965,117.36439 15,116.82 C14.7706491,116.37077 14.4254036,115.991 14,115.72 C13.5561284,115.441859 13.0644568,115.248582 12.55,115.15 C11.9637809,115.034387 11.3675054,114.977439 10.77,114.98 C10.342933,114.982081 9.9172653,115.029005 9.5,115.12 C9.09242975,115.203952 8.70303512,115.35971 8.35,115.58 C8.01470635,115.802022 7.72597436,116.087357 7.5,116.42 C7.26706125,116.797801 7.15215908,117.236519 7.17,117.68 C7.15194181,118.074563 7.24552358,118.46622 7.44,118.81 C7.69360638,119.163379 8.03957075,119.44015 8.44,119.61 C9.1361152,119.918993 9.85915616,120.163354 10.6,120.34 C11.52,120.59 12.73,120.9 14.21,121.28 C14.66,121.37 15.27,121.53 16.06,121.76 C16.8943662,122.015178 17.6863039,122.392612 18.41,122.88 C19.2033638,123.406629 19.8833706,124.086636 20.41,124.88 C21.0049883,125.867556 21.2970579,127.008018 21.25,128.16 C21.2553047,129.19338 21.0405443,130.216048 20.62,131.16 C20.1928508,132.10358 19.5486624,132.932802 18.74,133.58 C17.8185896,134.30222 16.7658024,134.838802 15.64,135.16 C12.9964969,135.892023 10.2074623,135.919603 7.55,135.24 C6.3770186,134.949063 5.27048446,134.436527 4.29,133.73 C3.34367822,133.042401 2.57282108,132.141355 2.04,131.1 C1.45847838,129.920604 1.18335059,128.613747 1.24,127.3 L6.3,127.3 C6.31379295,128.038944 6.51693537,128.761994 6.89,129.4 L6.89,129.4 Z" id="Path"></path>
                <path d="M28.6,118.05 L28.6,120.38 L28.66,120.38 C29.2407167,119.526051 30.0107021,118.817665 30.91,118.31 C31.8321294,117.816762 32.8643428,117.56559 33.91,117.58 C34.9445231,117.563083 35.969673,117.778364 36.91,118.21 C37.8299345,118.684681 38.5421624,119.482376 38.91,120.45 C39.4623204,119.650698 40.1696613,118.970563 40.99,118.45 C41.9201088,117.855663 43.0065533,117.552712 44.11,117.58 C44.9645125,117.572862 45.8159081,117.683914 46.64,117.91 C47.3771581,118.115456 48.0600055,118.48078 48.64,118.98 C49.2137398,119.508836 49.6584845,120.162268 49.94,120.89 C50.2691054,121.803161 50.4251032,122.769669 50.4,123.74 L50.4,135.26 L45.67,135.26 L45.67,125.51 C45.67,124.93 45.67,124.39 45.61,123.87 C45.5743756,123.406816 45.4486928,122.955037 45.24,122.54 C45.0360615,122.164008 44.7313147,121.852335 44.36,121.64 C43.8697478,121.398059 43.3261072,121.284514 42.78,121.31 C42.2153634,121.285637 41.6549088,121.417102 41.16,121.69 C40.7460373,121.931558 40.4015576,122.276037 40.16,122.69 C39.9162728,123.122774 39.756791,123.597826 39.69,124.09 C39.6099168,124.612853 39.5698006,125.141049 39.57,125.67 L39.57,135.26 L34.84,135.26 L34.84,125.61 C34.84,125.1 34.84,124.61 34.84,124.09 C34.8224103,123.617825 34.7278324,123.151691 34.56,122.71 C34.3882197,122.298994 34.0951868,121.950145 33.72,121.71 C33.1971988,121.424721 32.6044205,121.292992 32.01,121.33 C31.7114551,121.342124 31.4157029,121.392536 31.13,121.48 C30.7376066,121.5936 30.3731932,121.787726 30.06,122.05 C29.6758876,122.374772 29.3742974,122.786031 29.18,123.25 C28.913401,123.88204 28.7871618,124.564414 28.81,125.25 L28.81,135.25 L24.08,135.25 L24.08,118.05 L28.6,118.05 Z" id="Path"></path>
                <path d="M54,123.34 C54.0259328,122.3625 54.3124737,121.409665 54.83,120.58 C55.3115202,119.856227 55.950882,119.251056 56.7,118.81 C57.4909157,118.353008 58.3528693,118.031888 59.25,117.86 C60.1857132,117.677279 61.1366198,117.583527 62.09,117.58 C62.9697254,117.580545 63.8484035,117.640683 64.72,117.76 C65.5617853,117.875569 66.3811313,118.118338 67.15,118.48 C67.8633567,118.816576 68.4818917,119.325149 68.95,119.96 C69.4508369,120.701679 69.6965561,121.586268 69.65,122.48 L69.65,131.43 C69.6513774,132.175186 69.6947796,132.919702 69.78,133.66 C69.8225186,134.22043 69.982665,134.76561 70.25,135.26 L65.46,135.26 C65.3656067,134.996166 65.2920479,134.725336 65.24,134.45 C65.1797569,134.169895 65.1396542,133.885835 65.12,133.6 C64.389899,134.365074 63.4731529,134.926839 62.46,135.23 C61.4456039,135.540386 60.3908194,135.698773 59.33,135.7 C58.5532037,135.705944 57.7792821,135.604998 57.03,135.4 C56.3520104,135.217765 55.7188447,134.897778 55.17,134.46 C54.6317363,134.038029 54.2029868,133.49266 53.92,132.87 C53.6040581,132.145326 53.450468,131.36031 53.47,130.57 C53.4392842,129.733743 53.6144131,128.902739 53.98,128.15 C54.3023798,127.548763 54.7613492,127.031566 55.32,126.64 C55.8854894,126.250018 56.5150412,125.96232 57.18,125.79 C57.8775293,125.599786 58.5853471,125.449542 59.3,125.34 C60.01,125.23 60.7,125.14 61.39,125.07 C62.0074029,125.022069 62.6196098,124.921708 63.22,124.77 C63.6823721,124.677116 64.1170179,124.478617 64.49,124.19 C64.8116175,123.91638 64.973352,123.498879 64.92,123.08 C64.9413489,122.658722 64.8553251,122.238926 64.67,121.86 C64.5155834,121.572544 64.2878836,121.331044 64.01,121.16 C63.704133,120.979683 63.3631131,120.867147 63.01,120.83 C62.6197764,120.767894 62.2251287,120.737794 61.83,120.74 C61.0509476,120.695591 60.2786373,120.906221 59.63,121.34 C59.0494163,121.843873 58.7111448,122.571338 58.7,123.34 L54,123.34 Z M64.92,126.84 C64.7010794,127.027114 64.4456878,127.166728 64.17,127.25 C63.8450288,127.363791 63.5102878,127.447476 63.17,127.5 C62.82,127.57 62.46,127.63 62.09,127.67 C61.72,127.71 61.33,127.77 60.95,127.84 C60.5945349,127.902878 60.2437332,127.989743 59.9,128.1 C59.5818257,128.20302 59.281581,128.354829 59.01,128.55 C58.7497987,128.738133 58.5374282,128.984757 58.39,129.27 C58.2211079,129.611166 58.1419501,129.989746 58.16,130.37 C58.1439103,130.737261 58.2231461,131.102434 58.39,131.43 C58.5363778,131.710904 58.7535339,131.948742 59.02,132.12 C59.3083888,132.287553 59.6226994,132.405842 59.95,132.47 C60.3133014,132.533462 60.6812105,132.566908 61.05,132.57 C61.8024373,132.611321 62.5520922,132.448953 63.22,132.1 C63.690602,131.835171 64.0809982,131.448229 64.35,130.98 C64.5806901,130.575357 64.7333358,130.130988 64.8,129.67 C64.8505822,129.315526 64.877309,128.958055 64.88,128.6 L64.92,126.84 Z" id="Shape"></path>
                <polygon id="Path" points="78.15 111.49 78.15 135.26 73.42 135.26 73.42 111.49"></polygon>
                <polygon id="Path" points="86.74 111.49 86.74 135.26 82 135.26 82 111.49"></polygon>
                <path d="M111.41,111.49 C112.451025,111.480319 113.490149,111.58088 114.51,111.79 C115.367928,111.962424 116.183466,112.302231 116.91,112.79 C117.575739,113.247762 118.110105,113.871764 118.46,114.6 C118.848466,115.481073 119.036326,116.43745 119.01,117.4 C119.045933,118.459867 118.760053,119.505769 118.19,120.4 C117.581503,121.271596 116.748833,121.962608 115.78,122.4 C117.100663,122.730622 118.262235,123.516808 119.06,124.62 C120.350529,126.713426 120.493547,129.317854 119.44,131.54 C118.991668,132.394907 118.347461,133.131633 117.56,133.69 C116.743179,134.262341 115.827903,134.6793 114.86,134.92 C113.84529,135.188784 112.7997,135.323265 111.75,135.320058 L100.22,135.320058 L100.22,111.49 L111.41,111.49 Z M110.75,121.11 C111.564881,121.145599 112.369059,120.913827 113.04,120.45 C113.677998,119.91824 114.014369,119.107211 113.94,118.28 C113.958803,117.808395 113.855465,117.339929 113.64,116.92 C113.455643,116.575023 113.183029,116.285155 112.85,116.08 C112.495705,115.872566 112.105615,115.73349 111.7,115.67 C111.254522,115.589501 110.802692,115.549339 110.35,115.549992 L105.45,115.549992 L105.45,121.11 L110.75,121.11 Z M111.05,131.2 C111.540623,131.202201 112.030074,131.151915 112.51,131.05 C112.947659,130.961713 113.364873,130.792114 113.74,130.55 C114.102195,130.313882 114.395455,129.986121 114.59,129.6 C114.818406,129.12324 114.92819,128.598336 114.91,128.07 C115.016678,127.089694 114.644402,126.118054 113.91,125.46 C113.111782,124.90331 112.152155,124.625616 111.18,124.67 L105.48,124.67 L105.48,131.2 L111.05,131.2 Z" id="Shape"></path>
                <path d="M134.82,135.26 L134.82,132.87 L134.72,132.87 C134.185068,133.81337 133.371118,134.567933 132.39,135.03 C131.474216,135.4653 130.473958,135.694028 129.46,135.7 C128.400969,135.732638 127.345434,135.562938 126.35,135.2 C125.596384,134.903526 124.934165,134.413759 124.43,133.78 C123.93712,133.119022 123.595715,132.357689 123.43,131.55 C123.234045,130.592628 123.140187,129.617171 123.15,128.64 L123.15,118.05 L127.88,118.05 L127.88,127.77 C127.807581,128.870236 128.035721,129.969456 128.54,130.95 C129.085423,131.698594 129.989083,132.098949 130.91,132 C131.972383,132.09784 133.015128,131.668034 133.7,130.85 C134.376522,129.711327 134.680671,128.389852 134.57,127.07 L134.57,118.07 L139.3,118.07 L139.3,135.28 L134.82,135.26 Z" id="Path"></path>
                <path d="M146.89,131 C147.092098,131.357903 147.372401,131.665554 147.71,131.9 C148.056925,132.14463 148.447183,132.321094 148.86,132.42 C149.301092,132.533047 149.754652,132.590162 150.21,132.59 C150.546523,132.58376 150.881555,132.543556 151.21,132.47 C151.560538,132.39939 151.897923,132.274557 152.21,132.1 C152.508141,131.941633 152.765012,131.715587 152.96,131.44 C153.168798,131.130661 153.273857,130.762955 153.26,130.39 C153.26,129.68 152.79,129.15 151.85,128.79 C150.559334,128.343481 149.239573,127.985976 147.9,127.72 C147.223597,127.574112 146.555887,127.390492 145.9,127.17 C145.278918,126.981171 144.689198,126.701475 144.15,126.34 C143.669743,125.986609 143.276432,125.528316 143,125 C142.672933,124.417772 142.510462,123.757518 142.53,123.09 C142.492379,122.137627 142.717235,121.193233 143.18,120.36 C143.600478,119.662321 144.192622,119.083948 144.9,118.68 C145.642539,118.258669 146.450368,117.964605 147.29,117.81 C148.190079,117.640755 149.104152,117.557049 150.02,117.559925 C150.93347,117.557676 151.844813,117.64814 152.74,117.83 C153.569136,117.99306 154.364055,118.297497 155.09,118.73 C155.777,119.156938 156.36097,119.730664 156.8,120.41 C157.290857,121.210763 157.57281,122.121951 157.62,123.06 L153.12,123.06 C153.145912,122.30783 152.763482,121.600335 152.12,121.21 C151.436469,120.872898 150.681986,120.704854 149.92,120.72 C149.65,120.72 149.37,120.72 149.05,120.77 C148.760813,120.802209 148.477849,120.876318 148.21,120.99 C147.9569,121.093655 147.733536,121.258601 147.56,121.47 C147.133096,122.058329 147.219415,122.874051 147.76,123.36 C148.117854,123.650024 148.52887,123.867421 148.97,124 C149.532993,124.187056 150.107534,124.337372 150.69,124.45 L152.69,124.89 C153.366178,125.040858 154.0338,125.227792 154.69,125.45 C155.309884,125.661205 155.895954,125.960976 156.43,126.34 C156.937707,126.697322 157.360963,127.161538 157.67,127.7 C157.992498,128.316117 158.150918,129.004897 158.13,129.7 C158.220642,131.593646 157.279428,133.388075 155.67,134.39 C154.900793,134.879687 154.045678,135.219018 153.15,135.39 C152.202076,135.582485 151.23727,135.679635 150.27,135.680012 C149.285604,135.681258 148.303716,135.580723 147.34,135.38 C146.44137,135.197763 145.581675,134.859301 144.8,134.38 C144.052103,133.913611 143.422329,133.280414 142.96,132.53 C142.461639,131.650995 142.193344,130.660364 142.18,129.65 L146.68,129.65 C146.626915,130.110705 146.699479,130.577189 146.89,131 L146.89,131 Z" id="Path"></path>
                <path d="M160.93,115.38 L160.93,111.49 L165.66,111.49 L165.66,115.38 L160.93,115.38 Z M165.66,118.05 L165.66,135.26 L160.93,135.26 L160.93,118.05 L165.66,118.05 Z" id="Shape"></path>
                <path d="M173.88,118.05 L173.88,120.45 L173.98,120.45 C174.522635,119.505354 175.333582,118.743133 176.31,118.26 C177.223888,117.818101 178.224897,117.585785 179.24,117.58 C180.304367,117.542058 181.365472,117.718909 182.36,118.1 C183.113016,118.39742 183.772561,118.891216 184.27,119.53 C184.770925,120.186222 185.113188,120.949468 185.27,121.76 C185.469537,122.716979 185.56675,123.692463 185.56,124.67 L185.56,135.26 L180.83,135.26 L180.83,125.54 C180.903452,124.438549 180.671614,123.338183 180.16,122.36 C179.619143,121.611378 178.718187,121.210529 177.8,121.31 C176.734749,121.212272 175.689048,121.641756 175,122.46 C174.328829,123.600548 174.02833,124.921345 174.14,126.24 L174.14,135.24 L169.41,135.24 L169.41,118.05 L173.88,118.05 Z" id="Path"></path>
                <path d="M194.19,131.13 C195.042476,131.853249 196.145095,132.212408 197.26,132.13 C198.134991,132.152193 198.995055,131.900467 199.72,131.41 C200.301477,131.064257 200.749028,130.532129 200.99,129.9 L205.15,129.9 C204.677294,131.685392 203.594734,133.249089 202.09,134.32 C200.59052,135.246671 198.851928,135.712614 197.09,135.66 C195.839902,135.676376 194.598014,135.455822 193.43,135.01 C192.385116,134.603864 191.442715,133.972182 190.67,133.16 C189.896366,132.337026 189.300641,131.363442 188.92,130.3 C188.497467,129.123078 188.287534,127.88041 188.3,126.63 C188.288301,125.404844 188.501848,124.187968 188.93,123.04 C189.326883,121.967079 189.939492,120.986905 190.73,120.16 C191.521285,119.343289 192.466011,118.690817 193.51,118.24 C194.641862,117.760877 195.861031,117.522492 197.09,117.54 C198.416912,117.506435 199.731862,117.798264 200.92,118.39 C201.977132,118.933269 202.894348,119.713588 203.6,120.67 C204.312007,121.648565 204.828142,122.755537 205.12,123.93 C205.432212,125.181122 205.543601,126.473913 205.45,127.76 L193,127.76 C192.944945,128.995102 193.37159,130.203332 194.19,131.13 Z M199.54,122.08 C198.854522,121.411294 197.914989,121.068983 196.96,121.14 C196.310964,121.115439 195.66571,121.249295 195.08,121.53 C194.609583,121.768386 194.199308,122.110283 193.88,122.53 C193.589236,122.882103 193.374713,123.29072 193.25,123.73 C193.13122,124.096379 193.057347,124.47582 193.03,124.86 L200.72,124.86 C200.599075,123.839965 200.189731,122.875578 199.54,122.08 Z" id="Shape"></path>
                <path d="M212.23,131 C212.428667,131.35725 212.705578,131.664929 213.04,131.9 C213.387984,132.142772 213.777878,132.319072 214.19,132.42 C214.631092,132.533047 215.084652,132.590162 215.54,132.59 C215.876523,132.58376 216.211555,132.543556 216.54,132.47 C216.890274,132.398463 217.22752,132.273682 217.54,132.1 C217.838141,131.941633 218.095012,131.715587 218.29,131.44 C218.498798,131.130661 218.603857,130.762955 218.59,130.39 C218.59,129.68 218.11,129.15 217.17,128.79 C215.882802,128.343259 214.566351,127.985746 213.23,127.72 C212.553993,127.5725 211.886371,127.388904 211.23,127.17 C210.608918,126.981171 210.019198,126.701475 209.48,126.34 C208.975243,126.007308 208.554273,125.56238 208.25,125.04 C207.922933,124.457772 207.760462,123.797518 207.78,123.13 C207.742379,122.177627 207.967235,121.233233 208.43,120.4 C208.853239,119.704512 209.444748,119.12676 210.15,118.72 C210.895385,118.297103 211.706769,118.002977 212.55,117.85 C213.449953,117.679857 214.364112,117.596142 215.28,117.599873 C216.190139,117.598146 217.098118,117.688609 217.99,117.87 C218.819637,118.031313 219.614848,118.335862 220.34,118.77 C221.031488,119.191204 221.616624,119.766075 222.05,120.45 C222.540857,121.250763 222.82281,122.161951 222.87,123.1 L218.37,123.1 C218.400244,122.34682 218.0167,121.637264 217.37,121.25 C216.686864,120.911779 215.932104,120.743673 215.17,120.76 C214.91,120.76 214.62,120.76 214.31,120.81 C214.017713,120.842901 213.731547,120.916967 213.46,121.03 C213.208292,121.136115 212.985477,121.300655 212.81,121.51 C212.621805,121.752222 212.52608,122.053577 212.54,122.36 C212.541547,122.74633 212.713542,123.112278 213.01,123.36 C213.369231,123.647933 213.779823,123.865106 214.22,124 C214.782993,124.187056 215.357534,124.337372 215.94,124.45 C216.58,124.59 217.24,124.73 217.94,124.89 C218.616178,125.040858 219.2838,125.227792 219.94,125.45 C220.562988,125.661226 221.152356,125.960962 221.69,126.34 C222.194728,126.697698 222.61464,127.161991 222.92,127.7 C223.242498,128.316117 223.400918,129.004897 223.38,129.7 C223.470642,131.593646 222.529428,133.388075 220.92,134.39 C220.153494,134.87788 219.302003,135.217119 218.41,135.39 C217.461927,135.581501 216.497219,135.678642 215.53,135.680023 C214.545578,135.68176 213.563639,135.581221 212.6,135.38 C211.697728,135.199486 210.834455,134.860948 210.05,134.38 C209.302726,133.916173 208.675677,133.282271 208.22,132.53 C207.711512,131.654693 207.439278,130.662243 207.43,129.65 L211.93,129.65 C211.899415,130.119386 212.003495,130.587746 212.23,131 Z" id="Path"></path>
                <path d="M230.11,131 C230.308667,131.35725 230.585578,131.664929 230.92,131.9 C231.267984,132.142772 231.657878,132.319072 232.07,132.42 C232.51121,132.532428 232.964692,132.589533 233.42,132.59 C233.773256,132.587205 234.125222,132.546981 234.47,132.47 C234.820274,132.398463 235.15752,132.273682 235.47,132.1 C235.768141,131.941633 236.025012,131.715587 236.22,131.44 C236.428798,131.130661 236.533857,130.762955 236.52,130.39 C236.52,129.68 236.05,129.15 235.1,128.79 C233.812802,128.343259 232.496351,127.985746 231.16,127.72 C230.483993,127.5725 229.816371,127.388904 229.16,127.17 C228.539749,126.979029 227.950331,126.699476 227.41,126.34 C226.905243,126.007308 226.484273,125.56238 226.18,125.04 C225.852933,124.457772 225.690462,123.797518 225.71,123.13 C225.672379,122.177627 225.897235,121.233233 226.36,120.4 C226.783239,119.704512 227.374748,119.12676 228.08,118.72 C228.825385,118.297103 229.636769,118.002977 230.48,117.85 C231.380012,117.680278 232.294131,117.596568 233.21,117.599899 C234.120139,117.598146 235.028118,117.688609 235.92,117.87 C236.749637,118.031313 237.544848,118.335862 238.27,118.77 C238.961488,119.191204 239.546624,119.766075 239.98,120.45 C240.470857,121.250763 240.75281,122.161951 240.8,123.1 L236.3,123.1 C236.330244,122.34682 235.9467,121.637264 235.3,121.25 C234.616864,120.911779 233.862104,120.743673 233.1,120.76 C232.84,120.76 232.55,120.76 232.24,120.81 C231.947713,120.842901 231.661547,120.916967 231.39,121.03 C231.138292,121.136115 230.915477,121.300655 230.74,121.51 C230.551805,121.752222 230.45608,122.053577 230.47,122.36 C230.471547,122.74633 230.643542,123.112278 230.94,123.36 C231.301674,123.649883 231.715925,123.867195 232.16,124 C232.719578,124.187126 233.290798,124.337447 233.87,124.45 C234.51,124.59 235.17,124.73 235.87,124.89 C236.546178,125.040858 237.2138,125.227792 237.87,125.45 C238.492988,125.661226 239.082356,125.960962 239.62,126.34 C240.124728,126.697698 240.54464,127.161991 240.85,127.7 C241.175966,128.315188 241.337841,129.004018 241.32,129.7 C241.402121,131.594243 240.458439,133.386094 238.85,134.39 C238.083494,134.87788 237.232003,135.217119 236.34,135.39 C235.391927,135.581501 234.427219,135.678642 233.46,135.680023 C232.475578,135.68176 231.493639,135.581221 230.53,135.38 C229.627728,135.199486 228.764455,134.860948 227.98,134.38 C226.339292,133.371496 225.348409,131.575756 225.37,129.65 L229.86,129.65 C229.819367,130.114345 229.905784,130.580998 230.11,131 L230.11,131 Z" id="Path"></path>
                <path d="M6.89,163.6 C7.1393788,164.150763 7.52061401,164.6316 8,165 C8.51030532,165.359952 9.08352456,165.621123 9.69,165.77 C10.343887,165.935061 11.0156021,166.019026 11.69,166.02 C12.1922931,166.017467 12.6936926,165.977355 13.19,165.9 C13.7094292,165.824673 14.2148838,165.673037 14.69,165.45 C15.1439583,165.23931 15.5440495,164.928128 15.86,164.54 C16.1806578,164.111285 16.3431769,163.584865 16.32,163.05 C16.3442835,162.46749 16.1229783,161.901529 15.71,161.49 C15.2402567,161.054373 14.6899563,160.714682 14.09,160.49 C13.355575,160.199502 12.600047,159.965489 11.83,159.79 C10.98,159.59 10.13,159.37 9.26,159.12 C8.38099698,158.902925 7.51605681,158.632422 6.67,158.31 C5.85628021,158.006576 5.09147173,157.585426 4.4,157.06 C3.73205387,156.542656 3.183007,155.887892 2.79,155.14 C2.35547248,154.279273 2.14238051,153.323796 2.17,152.36 C2.14278923,151.24952 2.41202873,150.151851 2.95,149.18 C3.4490825,148.299097 4.13104326,147.535301 4.95,146.94 C5.81689376,146.328242 6.78513289,145.874591 7.81,145.6 C8.85387737,145.320353 9.92932968,145.175839 11.01,145.1699 C12.2158775,145.165589 13.4178873,145.306607 14.59,145.59 C15.6653546,145.849221 16.6828112,146.307077 17.59,146.94 C18.4736513,147.553058 19.1972515,148.369251 19.7,149.32 C20.2493891,150.406379 20.5175685,151.613186 20.48,152.83 L15.42,152.83 C15.4069669,152.216585 15.2529965,151.61439 14.97,151.07 C14.7406491,150.62077 14.3954036,150.241 13.97,149.97 C13.5261284,149.691859 13.0344568,149.498582 12.52,149.4 C11.9337809,149.284387 11.3375054,149.227439 10.74,149.23 C10.312933,149.232081 9.8872653,149.279005 9.47,149.37 C9.06242975,149.453952 8.67303512,149.60971 8.32,149.83 C7.98470635,150.052022 7.69597436,150.337357 7.47,150.67 C7.23706125,151.047801 7.12215908,151.486519 7.14,151.93 C7.12194181,152.324563 7.21552358,152.71622 7.41,153.06 C7.66360638,153.413379 8.00957075,153.69015 8.41,153.86 C9.1061152,154.168993 9.82915616,154.413354 10.57,154.59 C11.49,154.84 12.7,155.15 14.18,155.53 C14.63,155.62 15.24,155.78 16.03,156.01 C16.8643662,156.265178 17.6563039,156.642612 18.38,157.13 C19.1733638,157.656629 19.8533706,158.336636 20.38,159.13 C20.9749883,160.117556 21.2670579,161.258018 21.22,162.41 C21.2253047,163.44338 21.0105443,164.466048 20.59,165.41 C20.1628508,166.35358 19.5186624,167.182802 18.71,167.83 C17.7885896,168.55222 16.7358024,169.088802 15.61,169.41 C12.9664969,170.142023 10.1774623,170.169603 7.52,169.49 C6.3470186,169.199063 5.24048446,168.686527 4.26,167.98 C3.31367822,167.292401 2.54282108,166.391355 2.01,165.35 C1.42847838,164.170604 1.15335059,162.863747 1.21,161.55 L6.27,161.55 C6.30131897,162.274542 6.51453793,162.97954 6.89,163.6 L6.89,163.6 Z" id="Path"></path>
                <path d="M29.06,165.33 C30.6529608,166.588088 32.8625561,166.715948 34.59,165.65 C35.1714775,165.304257 35.6190284,164.772129 35.86,164.14 L40,164.14 C39.5272936,165.925392 38.4447344,167.489089 36.94,168.56 C35.4405201,169.486671 33.7019284,169.952614 31.94,169.9 C30.6898229,169.917346 29.4477538,169.69676 28.28,169.25 C27.2334915,168.841394 26.2883302,168.210149 25.51,167.4 C24.7432007,166.571831 24.1483782,165.599721 23.76,164.54 C23.3408711,163.36246 23.1343269,162.119809 23.15,160.87 C23.1383012,159.644844 23.3518477,158.427968 23.78,157.28 C24.1768829,156.207079 24.789492,155.226905 25.58,154.4 C26.369384,153.581048 27.314588,152.928245 28.36,152.48 C29.4918622,152.000877 30.7110311,151.762492 31.94,151.78 C33.2669122,151.746435 34.5818623,152.038264 35.77,152.63 C36.8271316,153.173269 37.7443484,153.953588 38.45,154.91 C39.1579539,155.890949 39.6737097,156.99711 39.97,158.17 C40.2822118,159.421122 40.3936011,160.713913 40.3,162 L27.9,162 C27.8419412,163.218177 28.2576488,164.411545 29.06,165.33 Z M34.41,156.28 C33.7245225,155.611294 32.784989,155.268983 31.83,155.34 C31.1809641,155.315439 30.5357096,155.449295 29.95,155.73 C29.0644326,156.159691 28.3977528,156.938691 28.11,157.88 C27.9989344,158.247865 27.9285141,158.626793 27.9,159.01 L35.59,159.01 C35.4553414,158.008763 35.047024,157.064097 34.41,156.28 Z" id="Shape"></path>
                <path d="M47.61,152.25 L47.61,155.44 L47.68,155.44 C47.9043614,154.904467 48.2077322,154.40559 48.58,153.96 C48.9508085,153.512185 49.3854587,153.121337 49.87,152.8 C50.3582846,152.48242 50.8861213,152.230269 51.44,152.05 C51.9987084,151.868864 52.5826668,151.777726 53.17,151.779958 C53.5095697,151.790363 53.8460817,151.84757 54.17,151.95 L54.17,156.34 C53.95,156.34 53.69,156.26 53.38,156.23 C53.0813433,156.1945 52.7807511,156.1778 52.48,156.18 C51.7235739,156.154981 50.9713379,156.302009 50.28,156.61 C49.7068396,156.877878 49.2087461,157.283223 48.83,157.79 C48.4495298,158.311818 48.1837143,158.908199 48.05,159.54 C47.8856764,160.248115 47.8051241,160.973085 47.81,161.7 L47.81,169.46 L43.09,169.46 L43.09,152.25 L47.61,152.25 Z" id="Path"></path>
                <polygon id="Path" points="60.33 169.46 54.44 152.25 59.44 152.25 63 164 63.07 164 66.69 152.25 71.39 152.25 65.56 169.46"></polygon>
                <path d="M73.52,149.58 L73.52,145.69 L78.25,145.69 L78.25,149.58 L73.52,149.58 Z M78.25,152.25 L78.25,169.46 L73.52,169.46 L73.52,152.25 L78.25,152.25 Z" id="Shape"></path>
                <path d="M90.2,155.34 C89.5290118,155.320232 88.867408,155.501302 88.3,155.86 C87.7929596,156.208776 87.3666914,156.662325 87.05,157.19 C86.725201,157.748195 86.4954052,158.356478 86.37,158.99 C86.239633,159.631882 86.1726446,160.285019 86.17,160.94 C86.1737862,161.578382 86.2407797,162.214821 86.37,162.84 C86.490936,163.451394 86.7104663,164.039059 87.02,164.58 C87.3178534,165.101228 87.7361826,165.54356 88.24,165.87 C88.7976887,166.215146 89.4444229,166.388999 90.1,166.37 C91.067013,166.42847 92.0151922,166.084664 92.72,165.42 C93.360863,164.71244 93.7601025,163.819404 93.86,162.87 L98.43,162.87 C98.2531879,164.893984 97.2956038,166.769701 95.76,168.1 C94.1557595,169.347881 92.1606255,169.985757 90.13,169.9 C88.9192551,169.91212 87.717462,169.691452 86.59,169.25 C85.5550897,168.844348 84.6178504,168.224066 83.84,167.43 C83.0715346,166.631761 82.4728171,165.686059 82.08,164.65 C81.6426819,163.521663 81.4254379,162.320032 81.44,161.11 C81.4303377,159.84596 81.6296916,158.589017 82.03,157.39 C82.3828257,156.280935 82.9654949,155.258708 83.74,154.39 C84.5106514,153.550885 85.4516428,152.886054 86.5,152.44 C87.6824886,151.954409 88.9519112,151.716179 90.23,151.74 C91.2439263,151.73011 92.2540859,151.864798 93.23,152.14 C94.1400534,152.390638 94.9972104,152.803971 95.76,153.36 C96.5011705,153.890577 97.1214675,154.572222 97.58,155.36 C98.0634034,156.246188 98.337088,157.231453 98.38,158.24 L93.7,158.24 C93.6293369,157.387673 93.2183317,156.599737 92.5597695,156.054071 C91.9012074,155.508405 91.0506095,155.251013 90.2,155.34 Z" id="Path"></path>
                <path d="M106.15,165.33 C107.742961,166.588088 109.952556,166.715948 111.68,165.65 C112.261423,165.306862 112.706509,164.773465 112.94,164.14 L117.11,164.14 C116.637062,165.927947 115.550313,167.492583 114.04,168.56 C112.54052,169.486671 110.801928,169.952614 109.04,169.9 C107.789744,169.918325 106.547491,169.697706 105.38,169.25 C104.333492,168.841394 103.38833,168.210149 102.61,167.4 C101.839956,166.574291 101.24471,165.601489 100.86,164.54 C100.440871,163.36246 100.234327,162.119809 100.25,160.87 C100.238301,159.644844 100.451848,158.427968 100.88,157.28 C101.679264,155.116777 103.336627,153.379803 105.46,152.48 C106.591862,152.000877 107.811031,151.762492 109.04,151.78 C110.366794,151.747651 111.681455,152.039416 112.87,152.63 C113.927132,153.173269 114.844348,153.953588 115.55,154.91 C116.258901,155.889094 116.771659,156.996106 117.06,158.17 C117.370503,159.421438 117.485197,160.713435 117.4,162 L105,162 C104.939193,163.21682 105.351259,164.410021 106.15,165.33 Z M111.5,156.28 C110.814522,155.611294 109.874989,155.268983 108.92,155.34 C108.267844,155.316601 107.619624,155.450361 107.03,155.73 C106.143621,156.15591 105.478821,156.936959 105.2,157.88 C105.093035,158.245004 105.025977,158.620534 105,159 L112.69,159 C112.550671,158.001249 112.138948,157.060168 111.5,156.28 L111.5,156.28 Z" id="Shape"></path>
                <path d="M124.18,165.18 C124.382098,165.537903 124.662401,165.845554 125,166.08 C125.345929,166.326367 125.736536,166.50299 126.15,166.6 C126.591092,166.713047 127.044652,166.770162 127.5,166.77 C127.853256,166.767205 128.205222,166.726981 128.55,166.65 C128.90006,166.577714 129.237195,166.452974 129.55,166.28 C129.848141,166.121633 130.105012,165.895587 130.3,165.62 C130.508798,165.310661 130.613857,164.942955 130.6,164.57 C130.6,163.86 130.13,163.33 129.19,162.97 C127.883013,162.521268 126.546472,162.163743 125.19,161.9 C124.513597,161.754112 123.845887,161.570492 123.19,161.35 C122.568918,161.161171 121.979198,160.881475 121.44,160.52 C120.935243,160.187308 120.514273,159.74238 120.21,159.22 C119.882933,158.637772 119.720462,157.977518 119.74,157.31 C119.702379,156.357627 119.927235,155.413233 120.39,154.58 C120.807977,153.880344 121.400705,153.301401 122.11,152.9 C122.851817,152.477107 123.659918,152.182945 124.5,152.03 C125.400079,151.860755 126.314152,151.777049 127.23,151.779925 C128.14347,151.777676 129.054813,151.86814 129.95,152.05 C130.776517,152.211243 131.568454,152.515834 132.29,152.95 C132.982301,153.373625 133.570205,153.947857 134.01,154.63 C134.496628,155.432671 134.778242,156.342765 134.83,157.28 L130.33,157.28 C130.355912,156.52783 129.973482,155.820335 129.33,155.43 C128.646469,155.092898 127.891986,154.924854 127.13,154.94 C126.86,154.94 126.57,154.94 126.26,154.99 C125.970813,155.022209 125.687849,155.096318 125.42,155.21 C125.1669,155.313655 124.943536,155.478601 124.77,155.69 C124.343096,156.278329 124.429415,157.094051 124.97,157.58 C125.327854,157.870024 125.73887,158.087421 126.18,158.22 C126.742993,158.407056 127.317534,158.557372 127.9,158.67 L129.9,159.11 C130.576178,159.260858 131.2438,159.447792 131.9,159.67 C132.519884,159.881205 133.105954,160.180976 133.64,160.56 C134.145395,160.919938 134.568145,161.383599 134.88,161.92 C135.202498,162.536117 135.360918,163.224897 135.34,163.92 C135.430642,165.813646 134.489428,167.608075 132.88,168.61 C132.110793,169.099687 131.255678,169.439018 130.36,169.61 C129.412076,169.802485 128.44727,169.899635 127.48,169.900012 C126.495604,169.901258 125.513716,169.800723 124.55,169.6 C123.65137,169.417763 122.791675,169.079301 122.01,168.6 C121.262103,168.133611 120.632329,167.500414 120.17,166.75 C119.671639,165.870995 119.403344,164.880364 119.39,163.87 L123.89,163.87 C123.868966,164.324642 123.969043,164.776715 124.18,165.18 L124.18,165.18 Z" id="Path"></path>
            </g>
        </g>
    </g>
</svg>