<?xml version="1.0" encoding="UTF-8"?>
<svg width="400px" height="61px" viewBox="0 0 400 61" version="1.1" xmlns="http://www.w3.org/2000/svg" xmlns:xlink="http://www.w3.org/1999/xlink">
    <title>6930347C-B623-4EA6-8759-8C6BC6A456E2</title>
    <g id="🎨-Elements-&amp;-Style-Guide" stroke="none" stroke-width="1" fill="none" fill-rule="evenodd">
        <g id="brand-elements" transform="translate(-214.000000, -445.000000)">
            <g id="Group-4" transform="translate(120.000000, 332.000000)">
                <g id="1.0-elements/brand/primary-logo" transform="translate(94.000000, 113.000000)">
                    <g id="logo" transform="translate(0.000000, 0.174992)">
                        <path d="M48.3393813,30.076188 C47.6361174,27.5651821 46.2832197,25.2683934 44.4080251,23.4019994 C41.0502499,20.1417861 36.4361595,18.384628 31.6794538,18.5546493 C27.0821301,18.7933839 23.3011537,21.3883251 22.5599964,22.6442766 L22.5599964,3.40019312 L14.0205751,3.40019312 L14.0205751,39.594432 L14.0205751,39.594432 C13.9612673,42.7400474 14.3222959,45.8799076 15.0947162,48.9362201 C15.8135963,51.4623555 17.1636002,53.7791819 19.0260724,55.6830671 C20.5534372,57.1979917 22.3796767,58.4015532 24.3967775,59.2225668 C26.6938081,60.1256129 29.1571156,60.5670766 31.6364881,60.5200373 C34.1363196,60.5666762 36.6192221,60.1143767 38.9299058,59.1914275 C40.9560573,58.3666843 42.8007581,57.1759406 44.3650594,55.6830671 C46.2314757,53.781993 47.5820681,51.4641567 48.2964156,48.9362201 C49.0762938,45.8600338 49.43739,42.6986493 49.3705567,39.5321535 C49.4577584,36.3500937 49.1110543,33.1707879 48.3393813,30.076188 Z M40.3155477,46.2790004 C40.0063429,47.950012 39.1871317,49.4935091 37.9631788,50.7111599 C36.3059704,52.3240104 34.0303624,53.1998482 31.6794538,53.129645 C29.3567285,53.184195 27.1138817,52.3089978 25.48166,50.7111599 C24.2656366,49.4880271 23.4477298,47.9469875 23.1292911,46.2790004 C22.7222048,44.073095 22.5315937,41.8349707 22.5599964,39.594432 L22.5599964,39.594432 L22.5599964,38.9716462 C22.5423273,36.8833098 22.7293466,34.7980488 23.1185497,32.7437875 C23.4319503,31.0711097 24.2504163,29.5254052 25.4709186,28.3012482 C27.1104496,26.7209443 29.3543875,25.8678695 31.6687124,25.9450417 C34.0111779,25.8521379 36.2879175,26.7058463 37.9524374,28.3012482 C39.1804574,29.5202062 40.0001671,31.0682595 40.3048063,32.7437875 C40.7340124,34.9819545 40.9283426,37.2562697 40.8848425,39.5321535 C40.9280627,41.793811 40.7373508,44.0539836 40.3155477,46.2790004 L40.3155477,46.2790004 Z" id="Shape" fill="#090D12" fill-rule="nonzero"></path>
                        <path d="M156.837786,38.8754792 C156.770953,42.0412943 157.132046,45.201999 157.911918,48.277524 C158.630792,50.8031163 159.980785,53.1194445 161.843241,55.0229204 C163.407529,56.5154729 165.252215,57.7059607 167.278349,58.5305265 C171.953269,60.281023 177.136437,60.281023 181.811356,58.5305265 C183.829847,57.7121881 185.656559,56.5085645 187.182017,54.9917878 C189.048417,53.0911225 190.398999,50.7737845 191.11334,48.2463914 C191.896547,45.1925896 192.25773,42.0520313 192.187472,38.9066118 L192.187472,38.9066118 L192.187472,2.72015449 L183.658864,2.72015449 L183.658864,22.0327433 C182.928454,20.7770618 179.15825,18.1826785 174.539482,17.9439953 C169.782816,17.7740105 165.168764,19.5307908 161.811017,22.7903032 C159.939613,24.6590321 158.587314,26.9543299 157.879694,29.4630568 C157.108158,32.5430633 156.757871,35.7074975 156.837786,38.8754792 L156.837786,38.8754792 Z M165.355653,38.8754792 C165.3205,36.5998925 165.518387,34.3265252 165.946426,32.0885726 C166.255484,30.4148401 167.074557,28.8683097 168.298775,27.6469886 C171.824093,24.5059235 177.254871,24.5059235 180.78019,27.6469886 C182.008199,28.8656844 182.827902,30.4134049 183.132539,32.0885726 C183.520601,34.1426823 183.711176,36.2270672 183.701829,38.3150924 L183.701829,38.9377444 L183.701829,38.9377444 C183.735612,41.1779799 183.54496,43.4161181 183.132539,45.6208756 C182.822467,47.309908 181.991272,48.8689711 180.747966,50.0935923 C179.115758,51.6910867 176.87293,52.5660957 174.550224,52.5115574 C172.20002,52.5779904 169.92592,51.702914 168.266551,50.0935923 C167.046345,48.8736162 166.227759,47.3316152 165.914202,45.6623857 C165.497936,43.4232746 165.310851,41.1500086 165.355653,38.8754792 L165.355653,38.8754792 Z" id="Shape" fill="#090D12" fill-rule="nonzero"></path>
                        <path d="M308.606389,30.0704527 C307.904035,27.5575204 306.547786,25.2603117 304.666861,23.397699 C303.10862,21.8742612 301.250904,20.6675495 299.203047,19.8485828 C296.910526,18.8872297 294.421532,18.4436004 291.925118,18.5513912 C287.330791,18.7900744 283.541545,21.3844577 282.800871,22.6401391 L282.800871,3.40019312 L274.288485,3.40019312 L274.288485,39.5866504 L274.288485,39.5866504 C274.217767,42.7320916 274.578726,45.8727143 275.361926,48.92643 C276.623019,53.5764041 280.069012,57.3842992 284.668658,59.2105651 C289.340569,60.9610616 294.520402,60.9610616 299.192313,59.2105651 C301.215775,58.3835436 303.058819,57.1933491 304.623923,55.702959 C306.495913,53.8054895 307.849806,51.4873082 308.563451,48.9575626 C309.337102,45.8810621 309.69788,42.7210791 309.636892,39.5555178 C309.720929,36.3639812 309.374513,33.17546 308.606389,30.0704527 Z M300.587786,46.2697816 C300.264781,47.9358352 299.448073,49.4752894 298.23695,50.7009881 C296.578649,52.3103099 294.306013,53.1853863 291.957321,53.1189533 C289.635876,53.1747372 287.393999,52.299536 285.763568,50.7009881 C284.540413,49.4835991 283.721736,47.9404339 283.412732,46.2697816 C282.991023,44.0661307 282.79685,41.8274229 282.833074,39.5866504 L282.833074,39.5866504 L282.833074,38.9639984 C282.821397,36.8754084 283.015493,34.7904897 283.412732,32.7374787 C283.717173,31.062311 284.536348,29.5145905 285.763568,28.2958946 C287.399857,26.7127227 289.643835,25.8592597 291.957321,25.9401946 C294.297608,25.8510971 296.571355,26.7040561 298.23695,28.2958946 C299.452479,29.5226664 300.269731,31.0667523 300.587786,32.7374787 C301.011394,34.9758483 301.205554,37.2491594 301.167444,39.5243852 C301.201773,41.7857304 301.007633,44.0449137 300.587786,46.2697816 L300.587786,46.2697816 Z" id="Shape" fill="#090D12" fill-rule="nonzero"></path>
                        <path d="M80.638411,41.0888791 C80.638411,44.6793929 81.5927423,47.4997676 83.4799591,49.5708176 C85.5247678,51.6975176 88.4323178,52.8400239 91.4255707,52.6930035 C93.3642153,52.7577006 95.2956328,52.4316863 97.0979438,51.7355331 C98.8252003,50.938273 100.387805,49.8413669 101.708758,48.4988671 L107.134506,53.4319208 C105.135049,55.4544572 102.768677,57.1020397 100.153948,58.2921236 C97.3343758,59.4029655 94.3061558,59.9276799 91.2647283,59.832402 C88.6623992,59.8538957 86.0746845,59.4528892 83.6086329,58.6459714 C81.3501891,57.9009394 79.2965337,56.6658529 77.6038522,55.034643 C75.7605749,53.1715884 74.3781859,50.9259146 73.5613481,48.4676452 C72.5029926,45.3182359 72.0026478,42.0174183 72.0815986,38.7056105 C72.0815986,32.1004527 73.7150419,26.9488459 76.9819285,23.2507901 C80.2433531,19.549779 85.0713641,17.5020774 90.0852178,17.6932991 C95.7325711,17.6932991 100.1468,19.5041669 103.327904,23.1259026 C106.509008,26.7476383 108.103134,31.5211137 108.110283,37.4463288 L108.110283,41.0888791 L80.638411,41.0888791 Z M99.3497366,32.3259439 C99.1792723,31.4340509 98.8834179,30.5691038 98.4704651,29.7553441 C97.8129968,28.2113317 96.6921417,26.8950064 95.2536183,25.9774991 C93.7290907,25.019483 91.9439094,24.5265117 90.1281091,24.5621082 C88.3034111,24.5352926 86.5105109,25.0273075 84.9704314,25.9774991 C83.528294,26.8910867 82.406406,28.208625 81.7535846,29.7553441 C81.3977143,30.5399577 81.1316256,31.3601034 80.9600957,32.2010564 C80.7994586,33.2352423 80.7027802,34.2778374 80.6705795,35.3232424 L99.62853,35.3232424 C99.5986237,34.3195619 99.5055189,33.318595 99.3497366,32.3259439 L99.3497366,32.3259439 Z" id="Shape" fill="#090D12" fill-rule="nonzero"></path>
                        <path d="M141.085671,59.1633603 L141.085671,34.1649786 C141.085671,31.0492684 140.299204,28.805957 138.758154,27.3000304 C137.121658,25.7491959 134.903207,24.9263751 132.625839,25.025562 C130.312026,24.9452558 128.062855,25.7802365 126.387244,27.3415732 C124.750543,28.8786569 123.953448,31.1427397 123.953448,34.1649786 L123.953448,59.1633603 L115.451104,59.1633603 L115.451104,18.1709995 L123.730262,18.1709995 L123.730262,22.3252798 C126.589804,19.2711261 130.665619,17.5809429 134.900216,17.6932572 C138.721541,17.5370627 142.448327,18.8793858 145.25182,21.4217238 C146.748884,22.798928 147.870389,24.5195968 148.514594,26.4276315 C149.20003,28.5424779 149.526727,30.7526751 149.481736,32.970623 L149.481736,59.1633603 L141.085671,59.1633603 Z" id="Path" fill="#090D12" fill-rule="nonzero"></path>
                        <path d="M207.363212,41.0946811 C207.363212,44.6859915 208.307052,47.5069917 210.194734,49.5785012 C212.241651,51.7097429 215.155112,52.8530012 218.153026,52.7013797 C220.092898,52.7627856 222.024818,52.43315 223.826796,51.7332874 C225.552409,50.9427887 227.109597,49.8446037 228.417293,48.4959033 L233.865828,53.4300514 C231.864151,55.4557123 229.493146,57.1039489 226.872827,58.2913323 C224.049413,59.4044546 221.016506,59.9293353 217.970693,59.8319524 C215.388731,59.8640545 212.819136,59.4806451 210.366341,58.6973065 C208.110527,57.952022 206.059879,56.7165683 204.370808,55.085177 C202.523505,53.2225305 201.137102,50.9763484 200.316583,48.5167225 C199.278507,45.348531 198.792758,42.0343514 198.879371,38.7108839 C198.879371,32.1042608 200.509642,26.9515112 203.770182,23.2526351 C207.038112,19.5462135 211.875954,17.497745 216.898147,17.6939113 C222.53974,17.6939113 226.955055,19.5051809 230.144093,23.12772 C233.33313,26.7502591 234.920498,31.5247934 234.906293,37.4513229 L234.906293,41.0946811 L207.363212,41.0946811 Z M226.068417,32.3298021 C225.888001,31.4402155 225.592498,30.5763175 225.188929,29.7586321 C224.537126,28.2108849 223.414698,26.8927448 221.971291,25.979949 C220.449707,25.0231358 218.667943,24.5300885 216.855245,24.5642441 C215.048208,24.5469598 213.274794,25.0387275 211.749925,25.979949 C210.308344,26.8947279 209.186441,28.2122516 208.532287,29.7586321 C208.174607,30.5418833 207.911861,31.3628007 207.749328,32.2048869 C207.588652,33.2393022 207.491949,34.2821285 207.459741,35.3277654 L226.465259,35.3277654 C226.392553,34.3218631 226.260052,33.3208754 226.068417,32.3298021 Z" id="Shape" fill="#090D12" fill-rule="nonzero"></path>
                        <path d="M265.114951,27.7646432 C264.269725,26.9192661 263.28146,26.2171453 262.191998,25.6880084 C261.096203,25.208593 259.898883,24.9810518 258.69528,25.0234853 C256.397392,25.0002307 254.200333,25.9271131 252.665337,27.5673629 C250.953108,29.3926658 250.058674,31.7909672 250.175414,34.2437435 L250.175414,59.1633603 L241.579768,59.1633603 L241.579768,18.1809739 L250.002202,18.1809739 L250.002202,22.6353554 C251.255388,21.0789109 252.897335,19.8504793 254.776358,19.0635437 C256.850249,18.1363669 259.113668,17.6645892 261.401718,17.6825816 C263.296541,17.6564439 265.180982,17.9553333 266.966154,18.5651513 C268.717927,19.2441939 270.300512,20.2702705 271.610402,21.5762717 L265.114951,27.7646432 Z" id="Path" fill="#090D12" fill-rule="nonzero"></path>
                        <path d="M349.944402,48.2146176 C349.23842,50.755161 347.889225,53.0835641 346.019831,54.9875289 C344.450092,56.4839765 342.606243,57.6820078 340.583337,58.5198626 C335.917813,60.2845776 330.740818,60.2845776 326.075294,58.5198626 C321.467075,56.6815606 318.010647,52.8523464 316.735675,48.1729382 C315.957781,45.0812198 315.597324,41.9042603 315.663388,38.7221219 C315.59558,35.5330312 315.956048,32.348964 316.735675,29.250466 C318.038657,24.604949 321.490087,20.8120783 326.075294,18.9869004 C328.36836,18.0803657 330.827416,17.6371966 333.302508,17.6844175 C335.794498,17.6430459 338.269882,18.0858727 340.583337,18.9869004 C342.634457,19.8260568 344.485239,21.0676129 346.019831,22.6338527 C347.891789,24.5074569 349.242352,26.8131185 349.944402,29.3338249 C350.724028,32.4323229 351.084497,35.6163901 351.016689,38.8054809 C351.079033,41.9737028 350.718602,45.1364184 349.944402,48.2146176 L349.944402,48.2146176 Z M341.934418,31.9387908 C341.625071,30.2510808 340.799206,28.6932325 339.564664,27.4686693 C336.045401,24.3147917 330.623952,24.3147917 327.10469,27.4686693 C325.880688,28.6977995 325.062887,30.254524 324.756381,31.9387908 C324.333286,34.1898084 324.139338,36.4758433 324.177346,38.7638014 C324.140858,41.0517104 324.334793,43.3376009 324.756381,45.588812 C325.067547,47.2654601 325.884989,48.8142482 327.10469,50.0380937 C330.590311,53.2745582 336.079043,53.2745582 339.564664,50.0380937 C340.800561,48.8103305 341.626473,47.2487627 341.934418,45.5575524 C342.350687,43.3056626 342.54458,41.0202739 342.513453,38.7325418 C342.54397,36.4551918 342.350074,34.1802321 341.934418,31.9387908 L341.934418,31.9387908 Z" id="Shape" fill="#090D12" fill-rule="nonzero"></path>
                        <polygon id="Path" fill="#090D12" fill-rule="nonzero" points="379.348693 59.1633603 370.415672 45.2283403 361.396133 59.1633603 351.024745 59.1633603 365.689607 38.312518 351.630374 18.3610428 361.990947 18.3610428 370.426487 31.6654722 378.764694 18.3610428 389.146897 18.3610428 375.141738 38.312518 389.730896 59.1633603"></polygon>
                        <rect id="Rectangle" fill="#090D12" fill-rule="nonzero" x="56.7245311" y="2.72015449" width="8.67551651" height="56.4432058"></rect>
                        <g id="Group">
                            <rect id="Rectangle" fill="#090D12" fill-rule="nonzero" x="389.431739" y="8.06979167" width="10.2747669" height="10.0152688"></rect>
                            <g id="bbox-logo-01"></g>
                        </g>
                    </g>
                </g>
            </g>
        </g>
    </g>
</svg>